<svg version="1.2" xmlns="http://www.w3.org/2000/svg" viewBox="0 0 952 941" width="952" height="941">
	<style>
		.s0 { fill: #1f1e1e } 
		.s1 { fill: #fdfefe } 
		.s2 { fill: #9e9e88 } 
		.s3 { fill: #c9cebd } 
		.s4 { fill: #b8bba6 } 
		.s5 { fill: #dbdbd7 } 
		.s6 { fill: #747662 } 
		.s7 { fill: #90947c } 
		.s8 { fill: #a3a88c } 
		.s9 { fill: #b1b49e } 
		.s10 { fill: #80856b } 
		.s11 { fill: #a9b098 } 
		.s12 { fill: #9aa88e } 
		.s13 { fill: #8d9a81 } 
		.s14 { fill: #9ca289 } 
		.s15 { fill: #c3c5b5 } 
		.s16 { fill: #a1a496 } 
		.s17 { fill: #d6d8cc } 
		.s18 { fill: #9ca58f } 
		.s19 { fill: #acb19b } 
		.s20 { fill: #a4a890 } 
		.s21 { fill: #c0c4b4 } 
		.s22 { fill: #757963 } 
		.s23 { fill: #b7baaa } 
		.s24 { fill: #888d77 } 
		.s25 { fill: #c3c3b7 } 
		.s26 { fill: #959d84 } 
		.s27 { fill: #ebe0b8 } 
		.s28 { fill: #828e71 } 
		.s29 { fill: #ccae3a } 
		.s30 { fill: #d9bd63 } 
		.s31 { fill: #cbad38 } 
		.s32 { fill: #7e8a71 } 
		.s33 { fill: #707b62 } 
		.s34 { fill: #c9ac39 } 
		.s35 { fill: #575f4a } 
		.s36 { fill: #d5ba55 } 
		.s37 { fill: #a9ac99 } 
		.s38 { fill: #c8cabc } 
		.s39 { fill: #6f7b65 } 
		.s40 { fill: #5d6853 } 
		.s41 { fill: #e0d094 } 
		.s42 { fill: #e9e0bc } 
		.s43 { fill: #cbad3a } 
		.s44 { fill: #e7d288 } 
		.s45 { fill: #c3c7be } 
		.s46 { fill: #8c8e80 } 
		.s47 { fill: #e2cd8a } 
		.s48 { fill: #eee5c3 } 
		.s49 { fill: #f9f8ee } 
		.s50 { fill: #d6bc67 } 
		.s51 { fill: #e2d193 } 
		.s52 { fill: #d1b34a } 
		.s53 { fill: #cbad39 } 
		.s54 { fill: #ebdca5 } 
		.s55 { fill: #f8f3e4 } 
		.s56 { fill: #919385 } 
		.s57 { fill: #e6d9a2 } 
		.s58 { fill: #c5c5be } 
		.s59 { fill: #eee6bc } 
		.s60 { fill: #f9f7ea } 
		.s61 { fill: #e4d087 } 
		.s62 { fill: #f0e5c2 } 
		.s63 { fill: #e7d591 } 
		.s64 { fill: #f4efdc } 
		.s65 { fill: #dec97e } 
		.s66 { fill: #e8d89f } 
		.s67 { fill: #a2a396 } 
		.s68 { fill: #e6d59c } 
		.s69 { fill: #707262 } 
		.s70 { fill: #d9c06c } 
		.s71 { fill: #ebe0b7 } 
		.s72 { fill: #eadeb4 } 
		.s73 { fill: #e7d18e } 
		.s74 { fill: #d1b34e } 
		.s75 { fill: #ebdca7 } 
		.s76 { fill: #eee6ca } 
		.s77 { fill: #efe4bf } 
		.s78 { fill: #f1eacf } 
		.s79 { fill: #fcfcfb } 
		.s80 { fill: #f8f4e8 } 
		.s81 { fill: #d2b449 } 
		.s82 { fill: #e0cd83 } 
		.s83 { fill: #efe5dd } 
		.s84 { fill: #cfb143 } 
		.s85 { fill: #d6ba5b } 
		.s86 { fill: #9ea489 } 
		.s87 { fill: #868779 } 
		.s88 { fill: #e9d8ac } 
		.s89 { fill: #61634f } 
		.s90 { fill: #f3e8cd } 
		.s91 { fill: #e9daaa } 
		.s92 { fill: #e6d69d } 
		.s93 { fill: #dfcdbc } 
		.s94 { fill: #d8d9cc } 
		.s95 { fill: #81856d } 
		.s96 { fill: #dedfd5 } 
		.s97 { fill: #b7bba6 } 
		.s98 { fill: #cfd0cb } 
		.s99 { fill: #d5bd60 } 
		.s100 { fill: #e8dcb0 } 
		.s101 { fill: #e6dcaf } 
		.s102 { fill: #eae0b5 } 
		.s103 { fill: #eadfb6 } 
		.s104 { fill: #7b7b6c } 
		.s105 { fill: #828d71 } 
		.s106 { fill: #cacdbe } 
		.s107 { fill: #c6ccbc } 
		.s108 { fill: #9a998d } 
		.s109 { fill: #d9c0ac } 
		.s110 { fill: #7f7f6f } 
		.s111 { fill: #c6ac98 } 
		.s112 { fill: #87987c } 
		.s113 { fill: #9fa991 } 
		.s114 { fill: #dfcec1 } 
		.s115 { fill: #d2b6a3 } 
		.s116 { fill: #5a6756 } 
		.s117 { fill: #8d9984 } 
		.s118 { fill: #7c8370 } 
		.s119 { fill: #e6e6e2 } 
		.s120 { fill: #d8ded6 } 
		.s121 { fill: #b99685 } 
		.s122 { fill: #727367 } 
		.s123 { fill: #f5f0e5 } 
		.s124 { fill: #afafa3 } 
		.s125 { fill: #cccdc6 } 
		.s126 { fill: #868c7c } 
		.s127 { fill: #b1b3a9 } 
		.s128 { fill: #eae4dc } 
		.s129 { fill: #68715c } 
		.s130 { fill: #757663 } 
		.s131 { fill: #7f7d6f } 
		.s132 { fill: #987968 } 
		.s133 { fill: #906459 } 
		.s134 { fill: #97927c } 
		.s135 { fill: #d4d4ce } 
		.s136 { fill: #6c6e56 } 
		.s137 { fill: #e1cc82 } 
		.s138 { fill: #cdae3d } 
		.s139 { fill: #8c8f80 } 
		.s140 { fill: #efe3b7 } 
		.s141 { fill: #ddc169 } 
		.s142 { fill: #f4eed5 } 
		.s143 { fill: #d5bc5f } 
		.s144 { fill: #d4ba53 } 
		.s145 { fill: #caac33 } 
		.s146 { fill: #cdb041 } 
		.s147 { fill: #e2cd84 } 
		.s148 { fill: #a7a7a6 } 
		.s149 { fill: #ebddba } 
		.s150 { fill: #e7d69c } 
		.s151 { fill: #e5d9a1 } 
		.s152 { fill: #d4b95a } 
		.s153 { fill: #d6be61 } 
		.s154 { fill: #828674 } 
		.s155 { fill: #eee3bb } 
		.s156 { fill: #e0c881 } 
		.s157 { fill: #eadebd } 
		.s158 { fill: #e1ca7d } 
		.s159 { fill: #dfe1d8 } 
		.s160 { fill: #e3d18b } 
		.s161 { fill: #dac171 } 
		.s162 { fill: #f2edda } 
		.s163 { fill: #caac36 } 
		.s164 { fill: #dac169 } 
		.s165 { fill: #cbad37 } 
		.s166 { fill: #faf9f2 } 
		.s167 { fill: #e2d89f } 
		.s168 { fill: #e2ce7f } 
		.s169 { fill: #fdfcf8 } 
		.s170 { fill: #faf9f1 } 
		.s171 { fill: #e0cb7d } 
		.s172 { fill: #9b9988 } 
		.s173 { fill: #dfca85 } 
		.s174 { fill: #d7bd63 } 
		.s175 { fill: #cfd0c6 } 
		.s176 { fill: #ece3bc } 
		.s177 { fill: #aeada0 } 
		.s178 { fill: #bec0b4 } 
		.s179 { fill: #f0e4ba } 
		.s180 { fill: #d7bb61 } 
		.s181 { fill: #eee8c7 } 
		.s182 { fill: #ccad38 } 
		.s183 { fill: #a2a892 } 
		.s184 { fill: #ebdeb0 } 
		.s185 { fill: #ebdead } 
		.s186 { fill: #7c806a } 
		.s187 { fill: #cbad35 } 
		.s188 { fill: #f4f1da } 
		.s189 { fill: #e0ca7c } 
		.s190 { fill: #d9bf6a } 
		.s191 { fill: #e0cc81 } 
		.s192 { fill: #d8be62 } 
		.s193 { fill: #c9c8c0 } 
		.s194 { fill: #faf8f0 } 
		.s195 { fill: #ccae3d } 
		.s196 { fill: #f1e7c6 } 
		.s197 { fill: #e8daa2 } 
		.s198 { fill: #e3cc7f } 
		.s199 { fill: #bdbeb4 } 
		.s200 { fill: #eedfaf } 
		.s201 { fill: #d7bc5b } 
		.s202 { fill: #dbc172 } 
		.s203 { fill: #e3cf98 } 
		.s204 { fill: #e7d89f } 
		.s205 { fill: #d1b54d } 
		.s206 { fill: #dec677 } 
		.s207 { fill: #dcca85 } 
		.s208 { fill: #e4d49f } 
		.s209 { fill: #f2ebd3 } 
		.s210 { fill: #f5eed4 } 
		.s211 { fill: #bbbbb2 } 
		.s212 { fill: #cfb249 } 
		.s213 { fill: #e4cd90 } 
		.s214 { fill: #dcddd8 } 
		.s215 { fill: #d6ba62 } 
		.s216 { fill: #999c88 } 
		.s217 { fill: #939885 } 
		.s218 { fill: #dfcb7f } 
		.s219 { fill: #f6efd9 } 
		.s220 { fill: #ddc773 } 
		.s221 { fill: #dcc775 } 
		.s222 { fill: #e7d69b } 
		.s223 { fill: #e8d8a4 } 
		.s224 { fill: #dbc67a } 
		.s225 { fill: #cbae38 } 
		.s226 { fill: #d4b955 } 
		.s227 { fill: #e1d08c } 
		.s228 { fill: #8f957f } 
		.s229 { fill: #eadda9 } 
		.s230 { fill: #cfb141 } 
		.s231 { fill: #ede2bb } 
		.s232 { fill: #808572 } 
		.s233 { fill: #dbc66c } 
		.s234 { fill: #eae0b9 } 
		.s235 { fill: #cbcdc3 } 
		.s236 { fill: #908977 } 
		.s237 { fill: #c1c4b6 } 
		.s238 { fill: #c2c5ba } 
		.s239 { fill: #b5b5a7 } 
		.s240 { fill: #b7bfa9 } 
		.s241 { fill: #a1a691 } 
		.s242 { fill: #929782 } 
		.s243 { fill: #a0a591 } 
		.s244 { fill: #778168 } 
		.s245 { fill: #808773 } 
		.s246 { fill: #b9bcaf } 
		.s247 { fill: #6c795f } 
		.s248 { fill: #777b5f } 
		.s249 { fill: #aeb5a1 } 
		.s250 { fill: #9a9e82 } 
		.s251 { fill: #b1b39e } 
		.s252 { fill: #a3a89a } 
		.s253 { fill: #646f58 } 
		.s254 { fill: #8e9481 } 
		.s255 { fill: #c5c5bc } 
		.s256 { fill: #7e866f } 
		.s257 { fill: #bfc3b6 } 
		.s258 { fill: #a9ab93 } 
		.s259 { fill: #878874 } 
		.s260 { fill: #b3b6a5 } 
		.s261 { fill: #dbddd5 } 
		.s262 { fill: #747b65 } 
		.s263 { fill: #b6b7a4 } 
		.s264 { fill: #e4e4dd } 
		.s265 { fill: #9fa28a } 
		.s266 { fill: #a3a792 } 
		.s267 { fill: #bfbfab } 
		.s268 { fill: #cacaba } 
		.s269 { fill: #dfe0d8 } 
		.s270 { fill: #d0cfc6 } 
		.s271 { fill: #ecece6 } 
		.s272 { fill: #878b73 } 
		.s273 { fill: #878c70 } 
		.s274 { fill: #a8ab99 } 
		.s275 { fill: #8e947f } 
		.s276 { fill: #dcded7 } 
		.s277 { fill: #a2a392 } 
		.s278 { fill: #434637 } 
		.s279 { fill: #b8baa7 } 
		.s280 { fill: #a5a995 } 
		.s281 { fill: #9da088 } 
		.s282 { fill: #717c65 } 
		.s283 { fill: #b5bea6 } 
		.s284 { fill: #7d8174 } 
		.s285 { fill: #616b55 } 
		.s286 { fill: #9da18e } 
		.s287 { fill: #81876b } 
		.s288 { fill: #6f725d } 
		.s289 { fill: #afb59d } 
		.s290 { fill: #a4a69d } 
		.s291 { fill: #fbfbfa } 
		.s292 { fill: #f5f4f2 } 
		.s293 { fill: #5e5f54 } 
		.s294 { fill: #dbddd6 } 
		.s295 { fill: #818373 } 
		.s296 { fill: #8b8f79 } 
		.s297 { fill: #c7cabd } 
		.s298 { fill: #a2a597 } 
		.s299 { fill: #ced0c7 } 
		.s300 { fill: #ccc9c4 } 
		.s301 { fill: #d4d5cf } 
		.s302 { fill: #a1a591 } 
		.s303 { fill: #8d8c7a } 
		.s304 { fill: #646654 } 
		.s305 { fill: #919884 } 
		.s306 { fill: #858a78 } 
		.s307 { fill: #9e9e92 } 
		.s308 { fill: #969887 } 
		.s309 { fill: #696758 } 
		.s310 { fill: #c3c6b7 } 
		.s311 { fill: #d9d6d0 } 
		.s312 { fill: #c5c8c0 } 
		.s313 { fill: #8d8c80 } 
		.s314 { fill: #555446 } 
		.s315 { fill: #787a6b } 
		.s316 { fill: #b0b4a7 } 
		.s317 { fill: #a3a698 } 
		.s318 { fill: #525444 } 
		.s319 { fill: #b1b9a2 } 
		.s320 { fill: #f4f3f1 } 
		.s321 { fill: #c1c5ba } 
		.s322 { fill: #646855 } 
		.s323 { fill: #7c826a } 
		.s324 { fill: #a1a498 } 
		.s325 { fill: #a4aa93 } 
		.s326 { fill: #98978c } 
		.s327 { fill: #bcbcb4 } 
		.s328 { fill: #71795a } 
		.s329 { fill: #818071 } 
		.s330 { fill: #999a8c } 
		.s331 { fill: #6e735f } 
		.s332 { fill: #838a70 } 
		.s333 { fill: #91967a } 
		.s334 { fill: #646954 } 
		.s335 { fill: #ccc9c0 } 
		.s336 { fill: #8f8e7f } 
		.s337 { fill: #6a6c5b } 
		.s338 { fill: #cacec8 } 
		.s339 { fill: #6c6c5e } 
		.s340 { fill: #535744 } 
		.s341 { fill: #a1a491 } 
		.s342 { fill: #d5d3cc } 
		.s343 { fill: #858679 } 
		.s344 { fill: #9fa093 } 
		.s345 { fill: #adb2a3 } 
		.s346 { fill: #aba99b } 
		.s347 { fill: #727162 } 
		.s348 { fill: #c1c5be } 
		.s349 { fill: #c4c1b8 } 
		.s350 { fill: #9b9b90 } 
		.s351 { fill: #919184 } 
		.s352 { fill: #969385 } 
		.s353 { fill: #c6c4b9 } 
		.s354 { fill: #7b7d6e } 
		.s355 { fill: #a3a498 } 
		.s356 { fill: #bbbab0 } 
		.s357 { fill: #d4d1ca } 
		.s358 { fill: #828373 } 
		.s359 { fill: #a7a699 } 
		.s360 { fill: #868273 } 
		.s361 { fill: #cbc5bf } 
		.s362 { fill: #5c5c4d } 
		.s363 { fill: #c5c3ba } 
		.s364 { fill: #706f62 } 
		.s365 { fill: #aeb1a4 } 
		.s366 { fill: #cdcec4 } 
		.s367 { fill: #78786a } 
		.s368 { fill: #919386 } 
		.s369 { fill: #c2c2bb } 
	</style>
	<g>
		<path fill-rule="evenodd" class="s0" d="m-36.5-42.5q512 0 1024 0 0 512 0 1024-512 0-1024 0 0-512 0-1024z"/>
	</g>
	<g>
		<path fill-rule="evenodd" class="s1" d="m-8.5-15.5q483.5 0 967 0 0 485 0 970-483.5 0-967 0 0-485 0-970z"/>
	</g>
	<g>
		<path fill-rule="evenodd" class="s2" d="m725.5 190.5q0 4 0 8-1.71 5.7-2.5 12-2.72-1.24-5.5-2.5-0.59-12.82 2.5-26.5 2.03-1.32 4.5-1-0.47 5.31 1 10z"/>
	</g>
	<g>
		<path fill-rule="evenodd" class="s3" d="m718.5 182.5q-2.95 11.3-4.5 23-1.52 1.7-2-1-0.32 2.34-1.5 4-1.76-0.33-3 1 1.84 3.51 0 7-1.85-1.73 0-3.5-1.42-0.72-3-0.5-3.19 2.2-4 6-2.98-0.18-5 2-1.53-0.75-0.5-2 2.23-0.98 3.5-3-1.16-1.82-2.5 0-0.5-1-1-2-1.06 2.21-3.5 2-1.5 0-3 0 11.47-6.54 16.5-19 9.28-4.95 13.5-14z"/>
	</g>
	<g>
		<path fill-rule="evenodd" class="s4" d="m704.5 212.5q0.25 3.54-0.5 7-3.13 2-4.5 5.5 1 0.5 2 1-0.43 4.93 0 10-1.89 4.33-4 8.5 1.12 1.85 1 4-4.7-0.07-5-5-1.63 1.34 0 3-0.52 1.79-1.5 0-1.38-5.99 2.5-10.5-0.75-0.75-1.5-1.5-1.17-9.68-1.5-19 2.44 0.21 3.5-2 0.5 1 1 2 1.34-1.82 2.5 0-1.27 2.02-3.5 3-1.03 1.25 0.5 2 2.02-2.18 5-2 0.81-3.8 4-6z"/>
	</g>
	<g>
		<path fill-rule="evenodd" class="s5" d="m686.5 217.5q-0.41 2.72-2 5-1.78-1.73-3 0-0.56 3.3-2 6-0.79 7.15-3 14 0.76-11.61 3-23 3.7-0.4 7-2z"/>
	</g>
	<g>
		<path fill-rule="evenodd" class="s6" d="m679.5 265.5q-2.28-6.09-2-13-0.21-7.24 2-14 1 0 1-1 1.21-2.69 1.5-6 3.86 7.15 0.5 14.5 3.72 4.51 3 10.5 0.1 4.69-1.5 9-2.24 1.84-4.5 0z"/>
	</g>
	<g>
		<path fill-rule="evenodd" class="s7" d="m681.5 222.5q2.59 3.34 7 3 1.23 17.34 1 34.5-1.72 5.93-4 11.5 3.33 7.5 5 16-0.25 1-0.5 2-1.06-1.32-2.5-2-4.54-9.6-6-20 3.6 0.16 5.5-3-0.92-14.01 0.5-28-0.25-5-0.5-10-0.3 2.63-1.5 5-2.01-2.26-5-2 0 4 0 8 0 1-1 1 0-5 0-10 1.44-2.7 2-6z"/>
	</g>
	<g>
		<path fill-rule="evenodd" class="s8" d="m725.5 246.5q0 0.5 0 1-1.44-0.68-2.5-2-1.38-12.48-3-1-2.43-2.03-3.5-5-2 8-4 0-1.39 1.78-1 4-1.34 0.91-3 1 0.64-5.29 4.5-9 0.5 1 1 2 6.38-8.85-4.5-9.5-1-1-2-2 1.89-2.61 3-5.5 1.23-4.21 1.5-9 0.62-0.69 1.5-1 0.89 4.71 2.5 9 0.33-2.84 2.5-6 3.18 1.36 1 4 4.19 1.12 2 4.5 0.57 2.45 2 4.5 2.01-4.01 4-8-1-1.5-2-3 0.75-1.53 2-0.5 2.05 4.5 2 9.5-6.62 1.67-1 5-2.85 2.15-1 5 1.68-2 4-1.5-0.05 4.75-1 9.5-2.55-0.24-5 0.5 1.01 1.48 0 3.5z"/>
	</g>
	<g>
		<path fill-rule="evenodd" class="s9" d="m725.5 190.5q-1.47-4.69-1-10-2.47-0.32-4.5 1-3.09 13.68-2.5 26.5 2.78 1.26 5.5 2.5 0.79-6.3 2.5-12-0.25 5.52 0.5 11 5.51 6.27 10.5 13 5.39 13.07 7.5 27 1.57 14.48 1 29-3.21 2.73-2.5 7-9.39 12.84-16 27 0.89-3.94 1-8 1.44-0.68 2.5-2 0.75-3.46 0.5-7 2.22 0.39 4-1 2.12-4.69 6-8 0.67-7.08 4-13-0.57-2.45-2-4.5 0.97-2.16 1-4.5-2.06 0.24-4-0.5-4.04-3.06-8-6-3.46-5.72-6-11.5 1.01-2.02 0-3.5 2.45-0.74 5-0.5 0.95-4.75 1-9.5-2.32-0.5-4 1.5-1.85-2.85 1-5-5.62-3.33 1-5 0.05-5-2-9.5-1.25-1.03-2 0.5 1 1.5 2 3-1.99 3.99-4 8-1.43-2.05-2-4.5 2.19-3.38-2-4.5 2.18-2.64-1-4-2.17 3.16-2.5 6-1.61-4.29-2.5-9-0.88 0.31-1.5 1-0.27 4.79-1.5 9-5.75-0.76 0-3-0.06-4.58 0-9 1.18-1.66 1.5-4 0.48 2.7 2 1 1.55-11.7 4.5-23 1.33-5.65 6.5-3 0.75 5.48 0.5 11z"/>
	</g>
	<g>
		<path fill-rule="evenodd" class="s10" d="m681.5 267.5q-2 0-2-2 2.26 1.84 4.5 0 1.6-4.31 1.5-9 0.72-5.99-3-10.5 3.36-7.35-0.5-14.5-0.29 3.31-1.5 6 0-4 0-8 2.99-0.26 5 2 1.2-2.37 1.5-5 0.25 5 0.5 10-1.42 13.99-0.5 28-1.9 3.16-5.5 3z"/>
	</g>
	<g>
		<path fill-rule="evenodd" class="s11" d="m710.5 208.5q-0.06 4.42 0 9-5.75 2.24 0 3-1.11 2.89-3 5.5 1 1 2 2 10.88 0.65 4.5 9.5-0.5-1-1-2-3.86 3.71-4.5 9-2.47 6.85-6 2-0.26 8.51-7.5 13-0.57-0.83-1.5-1-2.01-3.3-4-7 1-1.5 2-3-1.95-5.73 0-11.5-2.52-8.51-3-17.5-0.37-1.82-2-2 1-1 2-2 1.5 0 3 0 0.33 9.32 1.5 19 0.75 0.75 1.5 1.5-3.88 4.51-2.5 10.5 0.98 1.79 1.5 0-1.63-1.66 0-3 0.3 4.93 5 5 0.12-2.15-1-4 2.11-4.17 4-8.5-0.43-5.07 0-10-1-0.5-2-1 1.37-3.5 4.5-5.5 0.75-3.46 0.5-7 1.58-0.22 3 0.5-1.85 1.77 0 3.5 1.84-3.49 0-7 1.24-1.33 3-1z"/>
	</g>
	<g>
		<path fill-rule="evenodd" class="s12" d="m711.5 243.5q1.02 6.57 3 13 2.21-1.32 2.5-4 1 5.5 0 11-0.46 1.21-1.5 2-0.97-3.19-2.5-6-1.97 3.79-3.5 0-1.89-2.78 0-5.5-0.88-2.26-2-4.5-1.89 2.78 0 5.5-0.79 1.04-2 1.5-1.38 5.78-3 11.5 3.34 6.26-3 8.5-1.31 0.2-2-1 0.75-1.82 1-3.5-1-1-2-2 1.43-1.08 0.5-2.5-2.1-1.09-4.5-1.5 3.59-1.04 0-3 1.32-2.03 1-4.5 0.93 0.17 1.5 1 7.24-4.49 7.5-13 3.53 4.85 6-2 1.66-0.09 3-1z"/>
	</g>
	<g>
		<path fill-rule="evenodd" class="s13" d="m725.5 247.5q-2.47 6.91 2 12.5-0.7 1.95 0 4.5 2 0 4 0-0.24 2.06 0.5 4 2.24-1.87 4.5 0 1 2.5 2 5-1.14 5.42-1.5 11-3.34 7.58-9.5 13-1.82-1.16 0-2.5-1.6-1.78-4-1.5-0.56 3.78 2.5 6 0.5-0.5 1-1 0.74 2.96 0.5 6-0.11 4.06-1 8 0.26 1.49-1 2 0-5.5 0-11-1.76 0.33-3-1-1-4.04-2-8-0.41-8.07-2-16-1.25 8.96-1.5 18-1-4-2 0-0.5-1-1-2-0.29 3.12-1.5 6-1.9-8.37-7.5-3-0.5-0.5-1-1-0.35 1.86-1.5 3-2.26-11.33-3-23 6.34-2.24 3-8.5 1.62-5.72 3-11.5 1.21-0.46 2-1.5-1.89-2.72 0-5.5 1.12 2.24 2 4.5-1.89 2.72 0 5.5 1.53 3.79 3.5 0 1.53 2.81 2.5 6 1.04-0.79 1.5-2 1-5.5 0-11-0.29 2.68-2.5 4-1.98-6.43-3-13-0.39-2.22 1-4 2 8 4 0 1.07 2.97 3.5 5 1.62-11.48 3 1 1.06 1.32 2.5 2z"/>
	</g>
	<g>
		<path fill-rule="evenodd" class="s14" d="m686.5 217.5q1.63 0.18 2 2 0.48 8.99 3 17.5-1.95 5.77 0 11.5-1 1.5-2 3 1.99 3.7 4 7 0.32 2.47-1 4.5 3.59 1.96 0 3 2.4 0.41 4.5 1.5 0.93 1.42-0.5 2.5 1 1 2 2-0.25 1.68-1 3.5 0.69 1.2 2 1 0.74 11.67 3 23 1 4 2 8-8.45-9.96-17-20 1.44 0.68 2.5 2 0.25-1 0.5-2-1.67-8.5-5-16 2.28-5.57 4-11.5 0.23-17.16-1-34.5-4.41 0.34-7-3 1.22-1.73 3 0 1.59-2.28 2-5z"/>
	</g>
	<g>
		<path fill-rule="evenodd" class="s15" d="m736.5 222.5q1.44 0.68 2.5 2 11.43 22.72 9.5 48-1.9 7.25-6 13-0.71-4.27 2.5-7 0.57-14.52-1-29-2.11-13.93-7.5-27z"/>
	</g>
	<g>
		<path fill-rule="evenodd" class="s16" d="m679.5 228.5q0 5 0 10-2.21 6.76-2 14-0.28 6.91 2 13 0 2 2 2 1.46 10.4 6 20-2.63-3.21-6.5-5-3.07-7.73-5-16-0.99-12.03 0.5-24 2.21-6.85 3-14z"/>
	</g>
	<g>
		<path fill-rule="evenodd" class="s17" d="m832.5 272.5q-6.56 1.28-13 0-13.65 1.21-24 10-6.07 0.9-11 4 0.33 1.76-1 3-2.06 3.55-6 5-2.18 2.16-3 5-0.11 4.36-2.5 8-0.75 4.98-0.5 10-0.5 0-1 0-0.14-24.91 20-40 5.65-1.78 10-5.5 16.29-3.16 32 0.5z"/>
	</g>
	<g>
		<path fill-rule="evenodd" class="s18" d="m725.5 246.5q2.54 5.78 6 11.5 3.96 2.94 8 6 1.94 0.74 4 0.5-0.03 2.34-1 4.5 1.43 2.05 2 4.5-3.33 5.92-4 13-3.88 3.31-6 8-1.78 1.39-4 1 0.25 3.54-0.5 7-1.06 1.32-2.5 2 0.24-3.04-0.5-6-0.5 0.5-1 1-3.06-2.22-2.5-6 2.4-0.28 4 1.5-1.82 1.34 0 2.5 6.16-5.42 9.5-13 0.36-5.58 1.5-11-1-2.5-2-5-2.26-1.87-4.5 0-0.74-1.94-0.5-4-2 0-4 0-0.7-2.55 0-4.5-4.47-5.59-2-12.5 0-0.5 0-1z"/>
	</g>
	<g>
		<path fill-rule="evenodd" class="s19" d="m819.5 272.5q6.44 1.28 13 0 6.85 3.35 12 9-5.8-0.34-10-4-3.65 2.67-3-2-1.5 0-3 0 0.15 3.08-2 5-2.2-3.17 1-5.5-1-0.25-2-0.5-10.17 5.82-22 7.5-4.94 7.19-13 10.5-1.14 1.69-2 3.5-5.6 1.82-11 3.5-0.26-1.98 1-3.5 5.1-1.77 10-3.5 1.62-5.83 8-5.5 3.52-3.02 6-7 7.75-1.92 15-5 1.88-0.63 2-2.5z"/>
	</g>
	<g>
		<path fill-rule="evenodd" class="s20" d="m844.5 281.5q6.95 2.19 12 7.5 2.96 0.74 6 0.5 0.43 2.87-1 5-3.5 0-7 0 1.83-0.99 4-2-2.1-1.53-4-3-3.18-3.23-8-3-0.5-2.73-2-5z"/>
	</g>
	<g>
		<path fill-rule="evenodd" class="s21" d="m819.5 272.5q-0.12 1.87-2 2.5-7.25 3.08-15 5-2.48 3.98-6 7-6.38-0.33-8 5.5-4.9 1.73-10 3.5-1.26 1.52-1 3.5-1.5 0-3 0 0.82-2.84 3-5 3.94-1.45 6-5 1.33-1.24 1-3 4.93-3.1 11-4 10.35-8.79 24-10z"/>
	</g>
	<g>
		<path fill-rule="evenodd" class="s22" d="m854.5 289.5q1.9 1.47 4 3-2.17 1.01-4 2-10.59-3.52-22-4.5-1.32-2.03-1-4.5 11.56 1.72 23 4z"/>
	</g>
	<g>
		<path fill-rule="evenodd" class="s23" d="m854.5 294.5q3.5 0 7 0-5.25 1.69-11 3-12.91-2.14-26-2 3.46-2.32 8-2 9.28 0.73 18.5 2 2.08-0.02 3.5-1z"/>
	</g>
	<g>
		<path fill-rule="evenodd" class="s24" d="m844.5 281.5q1.5 2.27 2 5 4.82-0.23 8 3-11.44-2.28-23-4-0.32 2.47 1 4.5 11.41 0.98 22 4.5-1.42 0.98-3.5 1-9.22-1.27-18.5-2-4.54-0.32-8 2-2.1 2.08-5 3-2.74 2.47-4 6-4.35 1.49-2-3-0.21-6.29 6-7-0.3-2.83 2-4.5 4.58-0.27 9-1.5-1.78-2.03-4-3.5 1.37-2.12 0-4.5 2.15-1.92 2-5 1.5 0 3 0-0.65 4.67 3 2 4.2 3.66 10 4z"/>
	</g>
	<g>
		<path fill-rule="evenodd" class="s25" d="m819.5 298.5q-0.52 4.05-4 6 1.26-3.53 4-6z"/>
	</g>
	<g>
		<path fill-rule="evenodd" class="s26" d="m826.5 280.5q1.37 2.38 0 4.5 2.22 1.47 4 3.5-4.42 1.23-9 1.5-2.3 1.67-2 4.5-6.21 0.71-6 7-1.43-2.13-1-5-1.58-0.22-3 0.5-5.07 3.59-10 7-5.9 8.62-13 15.5-2.24 0.73-4 2-5.42 1.73-11 3 4.81-2.45 9-6 2 0 4 0 1.5-4 3-8 6.36-0.32 5-6 7.96-5.71 15.5-12 0.37 1.69 1.5 3 3.83-2.28 8-4 0.5-1 1-2-6.59-4.09-12.5 1-0.75-0.25-1.5-0.5 1.85-1.77 0-3.5-1.33 1.24-1 3-2 0-4 0 0 1.5 0 3-2 0-4 0 0 1.5 0 3-1.5 0-3 0 0.26 1.98-1 3.5-3.31 0.29-6 1.5-4.63 1.07-8 4.5-1.94 0.74-4 0.5-0.99 4.43-1 9 0.36 1.94-1 3-0.25-5.02 0.5-10 2.39-3.64 2.5-8 1.5 0 3 0 5.4-1.68 11-3.5 0.86-1.81 2-3.5 8.06-3.31 13-10.5 11.83-1.68 22-7.5 1 0.25 2 0.5-3.2 2.33-1 5.5z"/>
	</g>
	<g>
		<path fill-rule="evenodd" class="s27" d="m312.5 302.5q1.16-0.97 3-1 2.78-0.24 4 2-3.4-1.08-7-1z"/>
	</g>
	<g>
		<path fill-rule="evenodd" class="s28" d="m787.5 310.5q0.31-4.53 1-9-1.94 0.36-3-1 2.69-1.21 6-1.5 1.26-1.52 1-3.5 1.5 0 3 0 0-1.5 0-3 2 0 4 0 0-1.5 0-3 2 0 4 0-0.33-1.76 1-3 1.85 1.73 0 3.5 0.75 0.25 1.5 0.5 5.91-5.09 12.5-1-0.5 1-1 2-4.17 1.72-8 4-1.13-1.31-1.5-3-7.54 6.29-15.5 12 1.36 5.68-5 6z"/>
	</g>
	<g>
		<path fill-rule="evenodd" class="s29" d="m312.5 302.5q3.6-0.08 7 1 7.05 4.39 12.5 11 2.85 4.01 2.5 9 1.32 12.95 1 26 3 0 6 0 0 3 0 6-1.5 0-3 0-0.4 6.65 1 13 0 2 0 4 4.19-0.18 6-4 3.13-7.75 7-15 4.07-2.23 6 2 0.24 2.06-0.5 4-2.53 5.69-5.5 11-4.25 4-9 7.5-5.36 2.11-11 1-9.28-7.01-10-18.5 0-2 0-4-9.15-0.93-17 2-3.55 8.4-8.5 16-2.15 2.91-5.5 4-5 0-10 0-1.5-0.5-2-2-0.51-3.77 0-7 1.39 1.71 2.5 0 1.78 1.59 1.5 4 3.5 0 7 0 0-1.5 0-3 3.97-5.74 6-12.5-1.18-3.15-1-6.5 2.77-4.01 8-3 0.63-5.26 3-10 6.23-11.64 10-24.5-1.66-3.17-4.5-5.5-1.18-3.32 0.5-6z"/>
	</g>
	<g>
		<path fill-rule="evenodd" class="s30" d="m463.5 305.5q-2.06-0.24-4 0.5-4.4 4.69-10 7.5 3.98-10.09 14-8z"/>
	</g>
	<g>
		<path fill-rule="evenodd" class="s31" d="m570.5 310.5q4 2.75 6.5 7 0.75 7.48 0.5 15 0.28 8.02 1 16 3.5 0 7 0 0 4 0 8-1.5 0-3 0-1.82 7.6 1 15 0.63 0.94 2 1 2.5-1 5-2 1.82 0.37 2 2-1.77 5.02-7 6.5-12.47 3.37-16.5-8.5-1.73-6.93-2.5-14-9.5 0-19 0-2.05 13.34-12 22-4.39 1.2-9 1-4.83-0.42-6-5-1.5-7.5 6-6 0 2.5 0 5 2.87 0.43 5-1 1.5-1 3-2 1.31 0.2 2-1 2.86-7.54 8-13.5-0.25-0.75-0.5-1.5-1 2-2 0-0.72-1.42-0.5-3 1.98-0.26 3.5 1 1.88-3.77 1.5-8 1.35-1.65 2.5 0 0.5-2.5 1-5 0.5 0.5 1 1 3.36-4.41 4-10 2-3 4-6 2.24-7.94 4.5-16-1.76 0.33-3-1 5.35-0.39 10 3z"/>
	</g>
	<g>
		<path fill-rule="evenodd" class="s32" d="m720.5 294.5q-1.15-1.14-1.5-3-0.27 4.56-2.5 8.5 1.88 7.24 0 14.5-1.83-3.72-6-3 0 1.5 0 3-1.98-2.16-5-2 0.2-2.69-1-5-1-4-2-8 1.15-1.14 1.5-3 0.5 0.5 1 1 5.6-5.37 7.5 3 1.21-2.88 1.5-6 0.5 1 1 2 1-4 2 0 0.25-9.04 1.5-18 1.59 7.93 2 16z"/>
	</g>
	<g>
		<path fill-rule="evenodd" class="s33" d="m785.5 300.5q1.06 1.36 3 1-0.69 4.47-1 9-1.5 4-3 8-2 0-4 0-0.24-3.04 0.5-6 2.82-1.73 2.5-5-3.54-0.25-7 0.5-1.6 3.66-4 6.5 0.01-4.57 1-9 2.06 0.24 4-0.5 3.37-3.43 8-4.5z"/>
	</g>
	<g>
		<path fill-rule="evenodd" class="s34" d="m463.5 305.5q2.48 0.24 4 2 0 2 0 4-5.09-1.05-10 0-1.32 3.95-2 8 0.05 7.07-7 4.5-1.86-5.55 1-10.5 5.6-2.81 10-7.5 1.94-0.74 4-0.5z"/>
	</g>
	<g>
		<path fill-rule="evenodd" class="s35" d="m780.5 318.5q-4.19 3.55-9 6-1 0.5-2 1-2 0-2-2 1.72-2.85 3-6 0.5 0 1 0 1.36-1.06 1-3 2.4-2.84 4-6.5 3.46-0.75 7-0.5 0.32 3.27-2.5 5-0.74 2.96-0.5 6z"/>
	</g>
	<g>
		<path fill-rule="evenodd" class="s36" d="m467.5 307.5q1.05 3.25 4 5.5 1.62 0.7 3-0.5-1.58 2.63-5 2-0.1 2.19 1 4-4.82-2.79-9.5-6-1.89 0.39-3 2-0.15 3.23-2.5 5 0.68-4.05 2-8 4.91-1.05 10 0 0-2 0-4z"/>
	</g>
	<g>
		<path fill-rule="evenodd" class="s37" d="m813.5 301.5q-2.35 4.49 2 3 0 1 0 2-2.83 0.32-4 3-3.88 1.47-8 1 0.34-2.78-2-2.5-1.82 2.61-5 3-3.45 6.21-10 8.5 7.1-6.88 13-15.5 4.93-3.41 10-7 1.42-0.72 3-0.5-0.43 2.87 1 5z"/>
	</g>
	<g>
		<path fill-rule="evenodd" class="s38" d="m815.5 306.5q-6.5 9.42-18 9.5-2.81 1.63-5 4-4.99 0.92-10 1.5 1.76-1.27 4-2 6.55-2.29 10-8.5 3.18-0.39 5-3 2.34-0.28 2 2.5 4.12 0.47 8-1 1.17-2.68 4-3z"/>
	</g>
	<g>
		<path fill-rule="evenodd" class="s39" d="m720.5 294.5q1 3.96 2 8 1.24 1.33 3 1 0 5.5 0 11 0 4 0 8-1.49-8.6-4.5-17-3.49 10.05 2.5 19-8.25-2.75-13-10 0-1.5 0-3 4.17-0.72 6 3 1.88-7.26 0-14.5 2.23-3.94 2.5-8.5 0.35 1.86 1.5 3z"/>
	</g>
	<g>
		<path fill-rule="evenodd" class="s40" d="m725.5 322.5q0.5 0 1 0 0.93 3.32 3 6 1.61 13.3-3 1-1.21-2.58-3-5-5.99-8.95-2.5-19 3.01 8.4 4.5 17z"/>
	</g>
	<g>
		<path fill-rule="evenodd" class="s41" d="m378.5 315.5q0.47 4.12-1 8-1.2-0.69-1-2 1-3 2-6z"/>
	</g>
	<g>
		<path fill-rule="evenodd" class="s42" d="m428.5 321.5q0.39 3.73-3 5 0.33-3.25 3-5z"/>
	</g>
	<g>
		<path fill-rule="evenodd" class="s43" d="m394.5 318.5q1.51 3.07 3 6 5.52 10.59 10 22 0.38 3.7 3 6 0 1 0 2-0.13 2.24 2 3 2.38-2.51 2-6 1.22-21.85 9.5-42 6.96-7.68 16-4 1 5.5 0 11-5.59 1.44-11.5 1 0 2 0 4-2.67 1.75-3 5-1.39 9.46-3 19-2.14 3.02-2 7-0.97 2.9-1 6-1.84 7.19-2 15 3.3 0.57 5-2 2.59-2.59 6-4 1.61-1.59 3 0 1.21 2.36 1 5-2.81 4.83-8 6-3.89 1.15-8 1-3.23 0.19-6-1.5-4.72-3.47-9-7.5-5.55-14.08-11-28 0.11-2.29-2-3-0.37-5.03-3-9 0-2 0-4-1.5 0-3 0-0.99 5.95-1 12-2.4 5.61-3 12 0 0.5 0 1-2.14 3.02-2 7-2.59 8.52-5.5 17-1.56 1.81-3.5 3-3.89 1.15-8 1-3.75-0.94-4-5-1.28-7.47 5.5-6 0.74 1.94 0.5 4 1.5 0 3 0 0.19-2.57 1-5 1.21-2.29 2-5 0.93-0.17 1.5-1 3.12-12.18 3.5-25 3.22-7.19 4-15-0.2 1.31 1 2 1.47-3.88 1-8-1.33-5.31-7-5-0.25-4.03 0.5-8 2.08-1.58 4.5-0.5 4.63 3.11 10 5 1.69 5.13 6.5 7.5 1.19 1.87 1.5 4z"/>
	</g>
	<g>
		<path fill-rule="evenodd" class="s44" d="m394.5 318.5q3.71 1.78 3 6-1.49-2.93-3-6z"/>
	</g>
	<g>
		<path fill-rule="evenodd" class="s45" d="m726.5 322.5q3.44 1.85 4 6-0.5 0-1 0-2.07-2.68-3-6z"/>
	</g>
	<g>
		<path fill-rule="evenodd" class="s46" d="m767.5 323.5q0 2 2 2-3.47 3.2-7.5 6-0.32 2.34-1.5 4 0.39-2.22-1-4-2.36 1.21-5 1 0.2 4.3-4 5 1.92-2.47 3-5.5 7.29-3.89 14-8.5z"/>
	</g>
	<g>
		<path fill-rule="evenodd" class="s47" d="m469.5 323.5q0.36 3.6-2 6-0.36-3.6 2-6z"/>
	</g>
	<g>
		<path fill-rule="evenodd" class="s48" d="m385.5 330.5q-0.93-0.17-1.5-1-1.26 4.69-2.5 9 0.01-6.05 1-12 1.5 0 3 0 0 2 0 4z"/>
	</g>
	<g>
		<path fill-rule="evenodd" class="s49" d="m565.5 344.5q0 1.5 0 3-4.82 0.47-9-1 2.58-9.49 5.5-19 0.62-0.69 1.5-1 1.06 9.08 2 18z"/>
	</g>
	<g>
		<path fill-rule="evenodd" class="s50" d="m376.5 321.5q-0.78 7.81-4 15 1.86-8.79 3-18 1.33 1.24 1 3z"/>
	</g>
	<g>
		<path fill-rule="evenodd" class="s51" d="m467.5 330.5q0.14 3.98-2 7-0.14-3.98 2-7z"/>
	</g>
	<g>
		<path fill-rule="evenodd" class="s52" d="m570.5 310.5q-4.65-3.39-10-3 1.24 1.33 3 1-2.26 8.06-4.5 16-2 3-4 6-0.64 5.59-4 10-0.5-0.5-1-1-0.5 2.5-1 5-1.15-1.65-2.5 0 5.74-14.47 13.5-28 1.81-5.02-3-7-0.75-3.97-0.5-8 5.72 1.35 11 4.5 2.46 1.69 3 4.5z"/>
	</g>
	<g>
		<path fill-rule="evenodd" class="s53" d="m493.5 306.5q2.3 11.41-8.5 15-1.19 1.87-1.5 4-2.36 4.09-1.5 9 2.22-1.46 2.5-4 5.96-6.46 12-13 4.43-4.22 10-7 3.49-4.55 8-8.5 7.53-2.64 8 5-0.17 10.66-11 10-12.95 7.45-21 20 3.09 3.74 4.5 8.5 3.73 11.44 7 23 8.13 8.78 11.5-3 3.75-4.74 4-11 3.06-3.95 6.5 0-0.3 5.64-2.5 11-1.86 2.2-3 5-1.25 5.77-7 8-6 2-12 0-5.29-4.06-8.5-10-4.21-8.9-7.5-18-2.54-3.4-6.5-1-1.32 9.01-2.5 18-0.8 6.07-6 9.5-10.72 3.61-22 2-0.83-0.57-1-1.5-1.43-2.42-1-4.5 1.42-0.72 3-0.5 4.53 0.25 9-0.5 4.68-5.55 6-12.5 2.77-9.62 3-20 0-1 0-2 2.14-3.02 2-7 0-0.5 0-1 2.36-2.4 2-6 1.2-2.31 1-5-1.1-1.81-1-4 3.42 0.63 5-2 1.77-3.29 3-7 3.08-1.03 5-3.5 4-1 8 0 2.46 1.69 3 4.5z"/>
	</g>
	<g>
		<path fill-rule="evenodd" class="s54" d="m483.5 325.5q-0.43 2.87 1 5-0.28 2.54-2.5 4-0.86-4.91 1.5-9z"/>
	</g>
	<g>
		<path fill-rule="evenodd" class="s55" d="m493.5 306.5q0.56 5.91 3 11-6.04 6.54-12 13-1.43-2.13-1-5 0.31-2.13 1.5-4 10.8-3.59 8.5-15z"/>
	</g>
	<g>
		<path fill-rule="evenodd" class="s56" d="m729.5 328.5q0.5 0 1 0 0.86 3.97 2 8 1.04-0.79 1.5-2 2.4 5.71 5.5 11-2.04-0.76-3-3-1.2 0.69-1 2-1.11 0.2-2-0.5-2.49-4.27-6-7.5-1.08-3.4-1-7 4.61 12.3 3-1z"/>
	</g>
	<g>
		<path fill-rule="evenodd" class="s57" d="m388.5 339.5q2.11 0.71 2 3-2.11-0.71-2-3z"/>
	</g>
	<g>
		<path fill-rule="evenodd" class="s58" d="m727.5 336.5q3.51 3.23 6 7.5 0.89 0.7 2 0.5 0.91 1.34 1 3-6.64-3.65-9-11z"/>
	</g>
	<g>
		<path fill-rule="evenodd" class="s59" d="m314.5 338.5q0.23 4.82-3 8 0.94-4.35 3-8z"/>
	</g>
	<g>
		<path fill-rule="evenodd" class="s60" d="m311.5 346.5q3.23-3.18 3-8 1.35-6.58 5-12 1.16 11.01 2 22-5.74 0.85-10-2z"/>
	</g>
	<g>
		<path fill-rule="evenodd" class="s61" d="m334.5 323.5q1.15 1.14 1.5 3 0.75 10.99 0.5 22 3 0 6 0 0.45 3.84-1 7 0-3 0-6-3 0-6 0 0.32-13.05-1-26z"/>
	</g>
	<g>
		<path fill-rule="evenodd" class="s62" d="m381.5 338.5q1.1 6.92-3 12 0.6-6.39 3-12z"/>
	</g>
	<g>
		<path fill-rule="evenodd" class="s63" d="m577.5 332.5q1.84 7.19 2 15 3.35-0.44 6 1-3.5 0-7 0-0.72-7.98-1-16z"/>
	</g>
	<g>
		<path fill-rule="evenodd" class="s64" d="m306.5 338.5q-2.37 4.74-3 10-5.23-1.01-8 3-0.22-1.58 0.5-3 2.67-1.64 5.5-3 1.43-4.39 5-7z"/>
	</g>
	<g>
		<path fill-rule="evenodd" class="s65" d="m465.5 339.5q-0.23 10.38-3 20 0.13-10.4 3-20z"/>
	</g>
	<g>
		<path fill-rule="evenodd" class="s66" d="m565.5 344.5q1.4 1.6 1 4-7.07 0.49-14-1 1.78-1.39 4-1 4.18 1.47 9 1 0-1.5 0-3z"/>
	</g>
	<g>
		<path fill-rule="evenodd" class="s67" d="m748.5 339.5q-2.42 4.34-4 9-3.8 0.36-5-3 1.15 0.63 2.5 1 3.26-3.56 6.5-7z"/>
	</g>
	<g>
		<path fill-rule="evenodd" class="s68" d="m407.5 346.5q2.62 2.3 3 6-2.62-2.3-3-6z"/>
	</g>
	<g>
		<path fill-rule="evenodd" class="s69" d="m760.5 335.5q-8.42 3.92-13 12-0.93 0.17-1.5 1-0.75 3.46-0.5 7-3 0-6 0 0.43-2.87-1-5 0.11-2.29-2-3-0.09-1.66-1-3-0.2-1.31 1-2 0.96 2.24 3 3 1.2 3.36 5 3 1.58-4.66 4-9 0.5-1.5 2-2 4.2-0.7 4-5 2.64 0.21 5-1 1.39 1.78 1 4z"/>
	</g>
	<g>
		<path fill-rule="evenodd" class="s70" d="m372.5 336.5q-0.38 12.82-3.5 25-0.57 0.83-1.5 1 2.72-13.14 5-26z"/>
	</g>
	<g>
		<path fill-rule="evenodd" class="s71" d="m422.5 345.5q0.14 3.98-2 7-0.14-3.98 2-7z"/>
	</g>
	<g>
		<path fill-rule="evenodd" class="s72" d="m483.5 350.5q-2.68-0.43-5 1-1.38 8.34-4 16 1.18-8.99 2.5-18 3.96-2.4 6.5 1z"/>
	</g>
	<g>
		<path fill-rule="evenodd" class="s73" d="m438.5 352.5q-2.87 0.86-5 3 0.9-4.98 5-3z"/>
	</g>
	<g>
		<path fill-rule="evenodd" class="s74" d="m546.5 344.5q0.38 4.23-1.5 8-1.52-1.26-3.5-1-0.22 1.58 0.5 3 1 2 2 0 0.25 0.75 0.5 1.5-5.14 5.96-8 13.5-0.69 1.2-2 1 2.19-6.39 6-12-1.61-4.41-0.5-9 2.55-1.36 5.5-1-0.4-2.4 1-4z"/>
	</g>
	<g>
		<path fill-rule="evenodd" class="s75" d="m414.5 351.5q0.38 3.49-2 6-2.13-0.76-2-3 0.93 0.17 1.5 1 1.4-2.04 2.5-4z"/>
	</g>
	<g>
		<path fill-rule="evenodd" class="s76" d="m322.5 360.5q-1.36-1.06-1-3-8.14-0.42-16 1 7.85-2.93 17-2 0 2 0 4z"/>
	</g>
	<g>
		<path fill-rule="evenodd" class="s77" d="m378.5 351.5q0.14 3.98-2 7-0.14-3.98 2-7z"/>
	</g>
	<g>
		<path fill-rule="evenodd" class="s78" d="m517.5 354.5q-0.25 6.26-4 11 0.42-6.22 4-11z"/>
	</g>
	<g>
		<path fill-rule="evenodd" class="s79" d="m760.5 375.5q6.06 20.08 12 40 1.15 11.46 1 23 0 5.5 0 11-2.08 9.23-6 18-2.29-1.07-4-3-1.38-9.42-5-18-6.83-2.32-10-9-0.31-8.55-4-16-1.44-5.84-4-11 0-1 0-2-1.77-10.08-4.5-20-0.75-5.98-0.5-12 0-1.5 0-3 1.21-2.29 2-5 2.43-5.74 3-12 2.22-0.39 4 1 7.72 9.69 16 18z"/>
	</g>
	<g>
		<path fill-rule="evenodd" class="s80" d="m358.5 355.5q1.22 3.2 1.5 7 1.11-1.71 2.5 0 0.85 3.07 3 5-0.81 2.43-1 5-1.5 0-3 0 0.24-2.06-0.5-4-6.78-1.47-5.5 6-1.2-2.18-1.5-5-0.57 0.83-1.5 1 2.97-5.31 5.5-11 0.74-1.94 0.5-4z"/>
	</g>
	<g>
		<path fill-rule="evenodd" class="s81" d="m592.5 372.5q-0.18-1.63-2-2-2.5 1-5 2-1.37-0.06-2-1 2.84 0.3 4.5-2 4.47-6.89 6-15 3-4 6 0-0.12 10.46-7.5 18z"/>
	</g>
	<g>
		<path fill-rule="evenodd" class="s82" d="m582.5 356.5q0.62 7.49 1 15-2.82-7.4-1-15z"/>
	</g>
	<g>
		<path fill-rule="evenodd" class="s83" d="m201.5 367.5q-11.19-1.91-23 0-14.83-3.51-12 12-1.71-5.21-0.5-11 2.23-0.98 3.5-3 11.56 0.83 23-2 5.21 0.86 9 4z"/>
	</g>
	<g>
		<path fill-rule="evenodd" class="s84" d="m447.5 372.5q-1.58-0.22-3 0.5-0.43 2.08 1 4.5-6.94-3.31-9-11-2.28 2.85-4 6 0.21-2.64-1-5-1.39-1.59-3 0 3.69-5.57 5-12 2.13-2.14 5-3 0.59 1.54 2 0.5 3.39-4.15 8-6.5 2.66 1.29 4 4-10.3 6.1-8.5 18 2.44 1.55 3.5 4z"/>
	</g>
	<g>
		<path fill-rule="evenodd" class="s85" d="m290.5 370.5q0 1.5 0 3-3.5 0-7 0 0.28-2.41-1.5-4-1.11 1.71-2.5 0-0.51 3.23 0 7-2.93-3.9-1-8.5 6.63-2.35 6 4.5 3.54 0.37 6-2z"/>
	</g>
	<g>
		<path fill-rule="evenodd" class="s86" d="m616.5 367.5q14.62-0.63 29 1.5 2.06 2.16 3 5 2.82 0.3 5 1.5-5.73-0.78-9 4 2.75 0.84 4 3-6-1.5-12-3-1.66-0.09-3-1-3.29-2.05-7-3 5.45-0.7 10 2 0.99-4.84-3-8.5-4.98-0.75-10-0.5-3 0-6 0 0 1.5 0 3-1.4-1.6-1-4z"/>
	</g>
	<g>
		<path fill-rule="evenodd" class="s87" d="m747.5 347.5q-1.69 11.14 8 17.5 1.94 0.74 4 0.5-0.41 2.82 2 4-0.21 2.64 1 5-0.69 1.2-2 1-8.28-8.31-16-18-1.78-1.39-4-1-0.57 6.26-3 12-2.77-2.67-2-7 2.3-5.29 3-11 1.43 2.13 1 5 3 0 6 0-0.25-3.54 0.5-7 0.57-0.83 1.5-1z"/>
	</g>
	<g>
		<path fill-rule="evenodd" class="s88" d="m339.5 368.5q0.98 0.89 2 2 1.68-1.7 4-2-1.81 3.82-6 4 0-2 0-4z"/>
	</g>
	<g>
		<path fill-rule="evenodd" class="s89" d="m623.5 368.5q4.1 1.82 8 4-6.44 1.16-13 0-1 0-1-1 0-1.5 0-3 3 0 6 0z"/>
	</g>
	<g>
		<path fill-rule="evenodd" class="s90" d="m419.5 358.5q0 6.5 0 13 1.5 0 3 0-1.7 2.57-5 2 0.16-7.81 2-15z"/>
	</g>
	<g>
		<path fill-rule="evenodd" class="s91" d="m521.5 365.5q1.95 2.29 5 3-7.5-1.5-6 6-1-2-2-4 1.14-2.8 3-5z"/>
	</g>
	<g>
		<path fill-rule="evenodd" class="s92" d="m526.5 368.5q1.4 1.6 1 4 2 0 4 0-2.13 1.43-5 1 0-2.5 0-5z"/>
	</g>
	<g>
		<path fill-rule="evenodd" class="s93" d="m201.5 367.5q1.59 1.65 2.5 4 1.22 7.78-0.5 15 0.25-6.52-0.5-13-0.42-1.37-1.5-2 0.2-1.31-1-2-2.62 3.05-6 1-5.96 2.37-2 7-4.42 1.73-9 0.5 0.35-3.59-1.5-7.5-2.28-0.99-3.5-3 11.81-1.91 23 0z"/>
	</g>
	<g>
		<path fill-rule="evenodd" class="s94" d="m682.5 376.5q-7.1 0.18-14-1.5 2-1 0-2-7.37-1.74-15-2-3.77-1.56-7-4-14.49-0.75-29-0.5 12.16-2.84 25-1.5 6.06 0.52 11 4 15.61 0.3 29 7.5z"/>
	</g>
	<g>
		<path fill-rule="evenodd" class="s95" d="m623.5 368.5q5.02-0.25 10 0.5 3.99 3.66 3 8.5-4.55-2.7-10-2-3.88-1.87-8-3 6.56 1.16 13 0-3.9-2.18-8-4z"/>
	</g>
	<g>
		<path fill-rule="evenodd" class="s96" d="m616.5 367.5q-0.4 2.4 1 4 0 1 1 1 4.12 1.13 8 3 3.71 0.95 7 3-9.11-1.71-18-4-0.45-3.84 1-7z"/>
	</g>
	<g>
		<path fill-rule="evenodd" class="s97" d="m616.5 367.5q0-1 1-1 14.51-0.25 29 0.5 3.23 2.44 7 4 7.63 0.26 15 2 2 1 0 2 6.9 1.68 14 1.5 5.47 3.21 12 3 6.45 2.63 11 8-3.62 0.38-5-3-4.42-1.73-9-0.5 1.49 7.26 9 7.5 0.24 2.06-0.5 4-2-2-4 0-3.94-1.17-7.5-3-4.91-1.89-10-3.5-3.74-12.41-17-13.5-4 0-8 0-2.18-1.2-5-1.5-0.94-2.84-3-5-14.38-2.13-29-1.5z"/>
	</g>
	<g>
		<path fill-rule="evenodd" class="s98" d="m731.5 369.5q-1.16 7.95-1 16-1.72-6.72-0.5-14 0.42-1.37 1.5-2z"/>
	</g>
	<g>
		<path fill-rule="evenodd" class="s99" d="m281.5 378.5q5 0 10 0-2.17 2.16-5.5 2-3.01 0.29-4.5-2z"/>
	</g>
	<g>
		<path fill-rule="evenodd" class="s100" d="m367.5 378.5q-1.49 2.29-4.5 2-2.08-0.02-3.5-1 4.11 0.15 8-1z"/>
	</g>
	<g>
		<path fill-rule="evenodd" class="s101" d="m424.5 378.5q-1.49 2.29-4.5 2-2.08-0.02-3.5-1 4.11 0.15 8-1z"/>
	</g>
	<g>
		<path fill-rule="evenodd" class="s102" d="m499.5 378.5q6 2 12 0-0.17 0.93-1 1.5-5 1-10 0-0.83-0.57-1-1.5z"/>
	</g>
	<g>
		<path fill-rule="evenodd" class="s103" d="m535.5 378.5q-0.17 0.93-1 1.5-4.3 1.2-8-0.5 4.61 0.2 9-1z"/>
	</g>
	<g>
		<path fill-rule="evenodd" class="s104" d="m735.5 373.5q0 1.5 0 3-1 5.78-2 12-1.75-9.96-0.5-20 2.84 1.68 2.5 5z"/>
	</g>
	<g>
		<path fill-rule="evenodd" class="s105" d="m653.5 375.5q4 0 8 0 5.02 3.35 11 5-0.04 3.12 2 5.5-5.35 1.56-10.5 3.5-0.75-0.75-1.5-1.5 2.21-1.06 2-3.5-2.44-0.21-3.5 2-4.74-2.49-9.5-5-1.38 0.94-3 1-1.25-2.16-4-3 3.27-4.78 9-4z"/>
	</g>
	<g>
		<path fill-rule="evenodd" class="s106" d="m694.5 379.5q18.7 2.71 26 20-3.51-3.23-6-7.5-5.82 0.09-9-4.5-4.55-5.37-11-8z"/>
	</g>
	<g>
		<path fill-rule="evenodd" class="s107" d="m636.5 379.5q6 1.5 12 3 1.65 1.66 2 4-7.11-3.52-14-7z"/>
	</g>
	<g>
		<path fill-rule="evenodd" class="s108" d="m735.5 361.5q-0.77 4.33 2 7-0.79 2.71-2 5 0.34-3.32-2.5-5-1.25 10.04 0.5 20 1-6.22 2-12-0.25 6.02 0.5 12 2.73 9.92 4.5 20-0.98-0.89-2-2-1.43 2.32-1 5-1.49-6.8-3-14-1-0.5-2-1-1-3.7-2-7 0-2 0-4-0.16-8.05 1-16 2.03-4.07 4-8z"/>
	</g>
	<g>
		<path fill-rule="evenodd" class="s109" d="m178.5 367.5q1.22 2.01 3.5 3 1.85 3.91 1.5 7.5 4.58 1.23 9-0.5-3.96-4.63 2-7 3.38 2.05 6-1 1.2 0.69 1 2-2.9 0.97-6 1 0.44 4.9-2 9 0.98 2.93 1 6-2.71 2-4.5 5-4.45-1.95-7-6-1.26 2.26-3.5 1.5-1.2-5.62-1.5-11.5-4.19-4.82-10.5-6 0 4.5 0 9-0.5 0-1 0-2.83-15.51 12-12z"/>
	</g>
	<g>
		<path fill-rule="evenodd" class="s110" d="m766.5 382.5q2.13 7.72 5 15 1.65 7.41 3 15-0.5 1-1 2-3.79-13.62-8.5-27-1.3-4.48-1-9 0.91 2.35 2.5 4z"/>
	</g>
	<g>
		<path fill-rule="evenodd" class="s111" d="m201.5 371.5q1.08 0.63 1.5 2 0.75 6.48 0.5 13-0.47 4.82 1 9 1.88 11 0 22-1.52 2.77-3 5.5-1.94 0.74-4 0.5 0 1.5 0 3 4.53 0.31 9 1 0.18 6.15-5 9 2.54-3.31 4-7.5-4.98-0.75-10-0.5-2.16-2.99-4-6.5-4.55-0.96-9 0.5-2.56-0.3-4-2.5 3.88-12.54 3-25.5-1.24-1.33-3-1-0.85 7.23 2 13.5-2.86 5.86-6 11.5-0.88-0.31-1.5-1-0.86 6.72 1.5 13-1.75 1.49-2 4 1.53 3.02 3 6-1.94-1.19-3.5-3-0.06-3.71-2.5-6-1.6-3.57 3-3-1.19-6.43-1-13 1.47-2.71 4.5-4 2.03-8.36 1.5-17 0-2 0-4 3.5 0 7 0 1 6.48 2 13-1.95 3.97-4 8 1.03 2.92 1.5 6 3.76 2.51 8.5 3 2.64-3.27 6.5-5 0.25-1.25 0.5-2.5-2.22-9.16-5-18 0.59-3.53 0-7.5-0.02-3.07-1-6 2.44-4.1 2-9 3.1-0.03 6-1z"/>
	</g>
	<g>
		<path fill-rule="evenodd" class="s112" d="m661.5 375.5q13.26 1.09 17 13.5 5.09 1.61 10 3.5 0.68 1.44 2 2.5 7.54 1.11 13 6-3.3 0.56-6.5 1.5-1.55 0.5-1.5 2-1.5 0-3 0-6.07-0.81-11 2.5 1 0.5 2 1-5 0.5-10 1 0.83 0.57 1 1.5-2.16-1.25-3-4-2.36-1.21-5-1-3.98-6.98-11-11-3.06-3.71-5-8-0.35-2.34-2-4 1.62-0.06 3-1 4.76 2.51 9.5 5 1.06-2.21 3.5-2 0.21 2.44-2 3.5 0.75 0.75 1.5 1.5 5.15-1.94 10.5-3.5-2.04-2.38-2-5.5-5.98-1.65-11-5z"/>
	</g>
	<g>
		<path fill-rule="evenodd" class="s113" d="m705.5 387.5q3.18 4.59 9 4.5 2.49 4.27 6 7.5 0.68 4.44 4.5 7 0.76 3.03 1.5 6-3-3.5-6-7-0.12-1.87-2-2.5-4.46-0.5-8 0.5-1.94-0.9-4-1.5 1.79-0.98 0-1.5-3.38 1.38-3 5-4.11 0.15-8-1-0.05-1.5 1.5-2 3.2-0.94 6.5-1.5-5.46-4.89-13-6-1.32-1.06-2-2.5 3.56 1.83 7.5 3 2-2 4 0 0.74-1.94 0.5-4-7.51-0.24-9-7.5 4.58-1.23 9 0.5 1.38 3.38 5 3z"/>
	</g>
	<g>
		<path fill-rule="evenodd" class="s114" d="m173.5 391.5q1.71 1.93 4 3 0.53 8.64-1.5 17-3.03 1.29-4.5 4-0.25-4.03 0.5-8 1.06-2.21 3.5-2 0.42-7.24-2-14z"/>
	</g>
	<g>
		<path fill-rule="evenodd" class="s115" d="m194.5 387.5q0.59 3.97 0 7.5 2.78 8.84 5 18-0.25 1.25-0.5 2.5-3.86 1.73-6.5 5-4.74-0.49-8.5-3-0.47-3.08-1.5-6 2.05-4.03 4-8-1-6.52-2-13-3.5 0-7 0 0 2 0 4-2.29-1.07-4-3-4.27-5.4-6-12 0-4.5 0-9 6.31 1.18 10.5 6 0.3 5.88 1.5 11.5 2.24 0.76 3.5-1.5 2.55 4.05 7 6 1.79-3 4.5-5z"/>
	</g>
	<g>
		<path fill-rule="evenodd" class="s116" d="m692.5 404.5q1.14 1.15 3 1.5-2.3 1.66-2 4.5-9.5 0-19 0-0.17-0.93-1-1.5 5-0.5 10-1-1-0.5-2-1 4.93-3.31 11-2.5z"/>
	</g>
	<g>
		<path fill-rule="evenodd" class="s117" d="m720.5 405.5q-1.79 0.71-2 3 0.25 1.5 0.5 3 6.02 2.79 9.5 8-4.31-0.52-6-4.5-6.04 0.92-12-0.5-0.68-1.44-2-2.5-13.76-1.24-27 0.5-10.6 2.45-15-7 2.64-0.21 5 1 0.84 2.75 3 4 9.5 0 19 0-0.3-2.84 2-4.5-1.86-0.35-3-1.5 1.5 0 3 0 3.89 1.15 8 1-0.38-3.62 3-5 1.79 0.52 0 1.5 2.06 0.6 4 1.5 3.54-1 8-0.5 1.88 0.63 2 2.5z"/>
	</g>
	<g>
		<path fill-rule="evenodd" class="s118" d="m720.5 405.5q3 3.5 6 7 1.5 1 3 2 1.63 2.43 5 2.5 2.87 3.6 5 7.5-2.44-1.69-4.5-4-0.87 2.14 0.5 4-2.68-0.59-5-2-1-1.5-2-3-3.48-5.21-9.5-8-0.25-1.5-0.5-3 0.21-2.29 2-3z"/>
	</g>
	<g>
		<path fill-rule="evenodd" class="s119" d="m730.5 389.5q1 3.3 2 7 1 0.5 2 1 1.51 7.2 3 14 0.62 4.86 3 9 0.06 1.62 1 3-0.69 1.2-2 1-2.13-3.9-5-7.5-3.37-0.07-5-2.5 2.29-1.01 4-3 1.49-5.92 1-12-1.98 0.26-3.5-1-0.75-4.47-0.5-9z"/>
	</g>
	<g>
		<path fill-rule="evenodd" class="s120" d="m681.5 412.5q13.24-1.74 27-0.5 1.32 1.06 2 2.5-14.32-2.73-29-2z"/>
	</g>
	<g>
		<path fill-rule="evenodd" class="s121" d="m195.5 428.5q-3.19 2.2-4 6-1.5 0-3 0 4.01-4.78 2-10.5-3-1-6 0-3.1 5.37-9 6.5-0.5 0-1 0-2.36-6.28-1.5-13 0.62 0.69 1.5 1 3.14-5.64 6-11.5-2.85-6.27-2-13.5 1.76-0.33 3 1 0.88 12.96-3 25.5 1.44 2.2 4 2.5 4.45-1.46 9-0.5 1.84 3.51 4 6.5z"/>
	</g>
	<g>
		<path fill-rule="evenodd" class="s122" d="m740.5 408.5q0 1 0 2 0.37 4.62 2 9 0.09 3.33-2 1-2.38-4.14-3-9-0.43-2.68 1-5 1.02 1.11 2 2z"/>
	</g>
	<g>
		<path fill-rule="evenodd" class="s123" d="m204.5 395.5q1.08 0.63 1.5 2 1.22 12.87-0.5 25.5 1 1 2 2-1.13 1.01-1 2.5-4.47-0.69-9-1 0-1.5 0-3 2.06 0.24 4-0.5 1.48-2.73 3-5.5 1.88-11 0-22z"/>
	</g>
	<g>
		<path fill-rule="evenodd" class="s124" d="m761.5 369.5q3.71 5.94 5 13-1.59-1.65-2.5-4-0.3 4.52 1 9 4.71 13.38 8.5 27 0.5-1 1-2-1.35-7.59-3-15 1.36 2.28 2.5 5 6.15 26.62 4.5 54 3.5 0 7 0 0 1.5 0 3-3.48-2.59-8-2 0-7.5 0-15 0.57-10.14-1.5-20-0.75 8.49-0.5 17-1.2 11.03-1 22-0.5 0-1 0 0-6 0-12 0-5.5 0-11 1-4.22 1-9 0.22-7.39-2-14-5.94-19.92-12-40 1.31 0.2 2-1-1.21-2.36-1-5z"/>
	</g>
	<g>
		<path fill-rule="evenodd" class="s125" d="m730.5 422.5q2.32 1.41 5 2 2.09 2.1 3 5-4.55-3.06-8-7z"/>
	</g>
	<g>
		<path fill-rule="evenodd" class="s126" d="m740.5 410.5q2.56 5.16 4 11 0 2.5 0 5-3.3 0.57-5-2 1.31 0.2 2-1-0.94-1.38-1-3 2.09 2.33 2-1-1.63-4.38-2-9z"/>
	</g>
	<g>
		<path fill-rule="evenodd" class="s127" d="m744.5 421.5q3.69 7.45 4 16-1-2.5-2-5-0.14-3.43-2-6 0-2.5 0-5z"/>
	</g>
	<g>
		<path fill-rule="evenodd" class="s128" d="m171.5 415.5q-0.19 6.57 1 13-4.6-0.57-3 3-4.9-0.34-3-4.5 1.94-0.74 4-0.5-0.47-5.81 1-11z"/>
	</g>
	<g>
		<path fill-rule="evenodd" class="s129" d="m739.5 424.5q1.7 2.57 5 2 1.86 2.57 2 6 0 2 0 4-1.5 0-3 0-0.26-1.98 1-3.5-1.87-1.19-4-1.5-0.5-1.5-2-2-0.91-2.9-3-5-1.37-1.86-0.5-4 2.06 2.31 4.5 4z"/>
	</g>
	<g>
		<path fill-rule="evenodd" class="s130" d="m195.5 428.5q5.02-0.25 10 0.5-1.46 4.19-4 7.5-3.54 0.25-7-0.5 1.4-3.57 1-7.5z"/>
	</g>
	<g>
		<path fill-rule="evenodd" class="s131" d="m777.5 442.5q-0.93 0.17-1.5 1-0.74-1.94-0.5-4-0.25-8.51 0.5-17 2.07 9.86 1.5 20z"/>
	</g>
	<g>
		<path fill-rule="evenodd" class="s132" d="m188.5 434.5q-1 0-2 0-1 2-2 4-3.26-0.38-5-3-0.92-3.41-4-5 5.9-1.13 9-6.5 3-1 6 0 2.01 5.72-2 10.5z"/>
	</g>
	<g>
		<path fill-rule="evenodd" class="s133" d="m186.5 434.5q-3.52-0.01-4-3.5 1.04-3.84 4-6.5 2.32 1.07 3 3.5-1.05 3.55-3 6.5z"/>
	</g>
	<g>
		<path fill-rule="evenodd" class="s134" d="m195.5 428.5q0.4 3.93-1 7.5 3.46 0.75 7 0.5-0.17 0.93-1 1.5-5 0.5-10 1-4.92 4.16-8 9.5 0.68-5.11 2-10 1-2 2-4 1 0 2 0 1.5 0 3 0 0.81-3.8 4-6z"/>
	</g>
	<g>
		<path fill-rule="evenodd" class="s135" d="m772.5 415.5q2.22 6.61 2 14 0 4.78-1 9 0.15-11.54-1-23z"/>
	</g>
	<g>
		<path fill-rule="evenodd" class="s136" d="m179.5 435.5q1.74 2.63 5 3-1.32 4.89-2 10 0 1-1 1-1.56-5.93-4-11.5 0.28-2.06 2-2.5z"/>
	</g>
	<g>
		<path fill-rule="evenodd" class="s137" d="m283.5 442.5q-10.55-0.26-21 1 5.55-2.33 12-2 4.78 0 9 1z"/>
	</g>
	<g>
		<path fill-rule="evenodd" class="s138" d="m262.5 443.5q10.45-1.26 21-1 4.14 1.32 8 3.5 10.03 0.01 18 6 2.46 1.69 3 4.5-1.81-1.1-4-1-1.02 3.54-1 6.5 2.74 2.2 1.5 5.5-1-1-2-2-2.31 2.82-5.5 4.5 1.37 0.42 2 1.5-4.85 1.15-6.5 6-2.7 6.37-4.5 13-1.36 1.06-1 3-1.42-3.31-0.5-7-2.24-1.84-4.5 0 5.41-15.35 12-30-0.5-1-1-2-11.12-3.65-23-5-6.36 0.72-12 3-4.35 0.94-8 3-2 1.5 0 3 0 2 0 4-5.49-5.74-0.5-12 2.96 3.93 5.5-0.5-9.59-4.4-13 4 1 0.5 2 1-3.31 2.26-5.5 5.5-0.9 7.77-2.5 15 0-2.5 0-5 0-2 0-4 1.46-3.67 1-8-4.5 0-9 0-10.59-1.4-20-6.5-7.75-5.26-6-14.5 12.75-0.85 25 2.5 7.46 5 15.5 8.5 7.7-2.73 15.5-5z"/>
	</g>
	<g>
		<path fill-rule="evenodd" class="s139" d="m740.5 431.5q2.13 0.31 4 1.5-1.26 1.52-1 3.5 1.5 0 3 0 0-2 0-4 1 2.5 2 5 3.17 6.68 10 9 3.62 8.58 5 18 1.61 3.53 0 7-1.02-0.54-2-1-2.62-11.01-7.5-21-1.6-1.04-3.5-1.5-2.65-5.65-7.5-9.5-1.49-3.46-2.5-7z"/>
	</g>
	<g>
		<path fill-rule="evenodd" class="s140" d="m611.5 446.5q1.94-0.99 4.5-1 3.82-0.25 6.5 2-5.43-1.12-11-1z"/>
	</g>
	<g>
		<path fill-rule="evenodd" class="s141" d="m643.5 447.5q-2.5 0-5 0 0 2 0 4-3.54-2.37 0-5.5 3.26-1.32 5 1.5z"/>
	</g>
	<g>
		<path fill-rule="evenodd" class="s142" d="m213.5 442.5q12.15 1.97 23 7.5-11.09 0.88-21-4-1.98-1.22-2-3.5z"/>
	</g>
	<g>
		<path fill-rule="evenodd" class="s143" d="m595.5 449.5q-8.51-0.64-17-0.5-5.44 0.94-5.5 6.5-1.01-1.13-2.5-1 6.07-11.46 19-7.5 3.17 1.27 6 2.5z"/>
	</g>
	<g>
		<path fill-rule="evenodd" class="s144" d="m611.5 446.5q5.57-0.12 11 1 0 0.5 0 1-8.68-0.28-17 2 2.94-1.98 6-4z"/>
	</g>
	<g>
		<path fill-rule="evenodd" class="s145" d="m254.5 462.5q-0.1 12.15-2 24-1.2 4.39-1 9-3.09 6.75-5 14 1.94 0.36 3-1 5.7-2.46 8-8.5 3.67-1.36 4 2.5-2.41 5.17-5.5 10-2.79 4.05-7.5 5-3.3-0.57-5 2-5.05 3.18-11 4-7.56 0.13-15-1-5.59-2.18-7-8 0-3.5 0-7 2.15-0.12 4 1 1.46 3.36 1 7 1.5 0 3 0 4.67 3.23 10 1 1.31 0.2 2-1 0.76-4.38 3-8-0.08-3.6 1-7 2.8-3.2 2-8 0.74-3.46 1-7 2.61-4.49 3-10 1.6-7.23 2.5-15 2.19-3.24 5.5-5.5-1-0.5-2-1 3.41-8.4 13-4-2.54 4.43-5.5 0.5-4.99 6.26 0.5 12z"/>
	</g>
	<g>
		<path fill-rule="evenodd" class="s146" d="m514.5 451.5q2 0 4 0 0 1.5 0 3 7.02-0.25 14 0.5 1.69 0.37 3 1.5 3.66 5.2 6 11 0.21 3.57-2 6 1.55-11.14-8-16.5-7.98-0.75-16-0.5 1.44 5.4 2 11 0.46 4.33-1 8-2.09-4.84-3.5-10-1.08 2.42 0.5 4.5-1.87 2.74-3.5-0.5-1.19 3.22-4.5 4 0-3.5 0-7-2.82-0.41-4 2-1.35 1.19-2 3-1.08 0.63-1.5 2-1.23 8.27 0.5 16 1-1 2-2 0.09 3.82-3 6 1.65 0.75 3 1-0.76 4.44-3 8-0.21-2.64 1-5-6.15-2.26-6.5-9-0.75-7.48-0.5-15 3.22-7.5 8.5-14 1.76-2.09 4.5-2.5-3.71-1.96-6-5.5 1.47-4.24 6-4 3.94 2.4 8 5 1.02-0.54 2-1z"/>
	</g>
	<g>
		<path fill-rule="evenodd" class="s145" d="m595.5 449.5q3.29 1.89 7 3 1.86-0.66 3-2 8.32-2.28 17-2 0.93 0.17 1.5 1 1.32 7.28-1.5 14-4.62 2.28-10 2.5-1.36 2.55-1 5.5-1.31-0.2-2 1-1.34 4.96-2.5 10-1 1-2 2-0.77 8.1-2.5 16-5.4-0.36-1 3-2.13 3.76-5 7-0.5-0.75-1-1.5 0.02-6.19 1-11.5-0.82-5.77-3-11 0.97-2.9 1-6 1.08-0.63 1.5-2 2.08-10.49 3.5-21-2 0-4 0-1 0-2 0-0.71-2.11-3-2-7.27-1.97-15 0-3.56 3.78-3 9-1.98 0.26-3.5-1-1.18-4.91 1.5-9 1.49-0.13 2.5 1 0.06-5.56 5.5-6.5 8.49-0.14 17 0.5z"/>
	</g>
	<g>
		<path fill-rule="evenodd" class="s147" d="m532.5 449.5q-7.43-0.57-14 2-2 0-4 0 8.69-4.33 18-2z"/>
	</g>
	<g>
		<path fill-rule="evenodd" class="s148" d="m-8.5-15.5q483.75-1.5 968-1 0 486 0 972-484.25 0.5-968-1 483.5 0 967 0 0-485 0-970-483.5 0-967 0z"/>
	</g>
	<g>
		<path fill-rule="evenodd" class="s149" d="m262.5 452.5q-3.18 3.23-8 3 3.65-2.06 8-3z"/>
	</g>
	<g>
		<path fill-rule="evenodd" class="s150" d="m365.5 452.5q0.11 2.29-2 3-0.11-2.29 2-3z"/>
	</g>
	<g>
		<path fill-rule="evenodd" class="s151" d="m590.5 455.5q2.29-0.11 3 2-2.29 0.11-3-2z"/>
	</g>
	<g>
		<path fill-rule="evenodd" class="s152" d="m590.5 455.5q-6.52-0.25-13 0.5-3.26 3.9-5 8.5-0.56-5.22 3-9 7.73-1.97 15 0z"/>
	</g>
	<g>
		<path fill-rule="evenodd" class="s153" d="m595.5 457.5q2 0 4 0-1.42 10.51-3.5 21-0.42 1.37-1.5 2 1.43-11.15 4-22-1.94 0.36-3-1z"/>
	</g>
	<g>
		<path fill-rule="evenodd" class="s154" d="m775.5 439.5q-0.24 2.06 0.5 4 0.57-0.83 1.5-1 0 7.5 0 15 4.52-0.59 8 2 0.2 4.61-1 9-7.51-0.17-10-7-0.2-10.97 1-22z"/>
	</g>
	<g>
		<path fill-rule="evenodd" class="s155" d="m383.5 453.5q1.4 1.6 1 4-16.88-3.7-13 13-0.93-0.17-1.5-1-3.4-16.85 13.5-13 0-1.5 0-3z"/>
	</g>
	<g>
		<path fill-rule="evenodd" class="s156" d="m570.5 454.5q-2.68 4.09-1.5 9 1.52 1.26 3.5 1-2.08 1.95-4.5 0-1-4 0-8 1.06-1.32 2.5-2z"/>
	</g>
	<g>
		<path fill-rule="evenodd" class="s157" d="m232.5 458.5q4.5 0 9 0 0.46 4.33-1 8 0-3.5 0-7-4.33 0.46-8-1z"/>
	</g>
	<g>
		<path fill-rule="evenodd" class="s158" d="m312.5 456.5q0.93 0.17 1.5 1 2.22 8.91 3.5 18 0 2 0 4-2.35-11.4-5-23z"/>
	</g>
	<g>
		<path fill-rule="evenodd" class="s159" d="m773.5 449.5q0 6 0 12 0 0.5 0 1-2.08 3.57-6 5 3.92-8.77 6-18z"/>
	</g>
	<g>
		<path fill-rule="evenodd" class="s160" d="m551.5 460.5q3.59 5.19 2 11-1-5.5-2-11z"/>
	</g>
	<g>
		<path fill-rule="evenodd" class="s161" d="m433.5 463.5q-0.58 6.52-5 11 1.9-5.86 5-11z"/>
	</g>
	<g>
		<path fill-rule="evenodd" class="s162" d="m622.5 463.5q-3.18 4.45-9 4-0.6 5.42-3 10 0.03-3.1 1-6-0.36-2.95 1-5.5 5.38-0.22 10-2.5z"/>
	</g>
	<g>
		<path fill-rule="evenodd" class="s163" d="m312.5 456.5q2.65 11.6 5 23 0 7 0 14 2.5 0 5 0 0 3.5 0 7-2 0-4 0-0.37 5.94 2 11 0 3 0 6 1.94 0.36 3-1 4-1 5-5 3.18-2.23 4.5-6 2.06 3.65 1.5 8-5.4 12.64-19 10.5-9.39-5.04-9-15.5 0-4 0-8-10.28-0.49-20 1-2.9 8.81-7.5 17-9.59 11.24-20 1-2.88-8.76 5.5-6 1.16 5.52 6 3 3.66-6.85 8-13 1.5 0.04 2-1.5-1.27-4.15-1-8.5 2.5 0 5 0 0.19-2.57 1-5-0.26-1.49 1-2 2.26-1.84 4.5 0-0.92 3.69 0.5 7 6.5 0 13 0 0.49-11.28-1-22-0.63-1.08-2-1.5 3.19-1.68 5.5-4.5 1 1 2 2 1.24-3.3-1.5-5.5-0.02-2.96 1-6.5 2.19-0.1 4 1z"/>
	</g>
	<g>
		<path fill-rule="evenodd" class="s164" d="m362.5 459.5q-1.19 6.57-3 13-1.5 0-3 0 3.44-6.38 6-13z"/>
	</g>
	<g>
		<path fill-rule="evenodd" class="s165" d="m449.5 460.5q-0.14 3.98 2 7 0.19 9.9 3 19 0 3 0 6 2.13 1.43 5 1 0 3.5 0 7-1.5 0-3 0 0.28 8.02 1 16 3.73 0.39 5-3 3.17-7.37 6.5-15 3.66-1.16 7.5-0.5 3.38-4.14 8-6.5 3.52-0.06 4 3.5-3.21 4.62-7.5 8.5-3.17 12.78 9.5 13.5 2.15-0.7 3.5-2.5 1.66-6.22 3.5-12 2.24-3.56 3-8-1.35-0.25-3-1 3.09-2.18 3-6 0-2 0-4 1.06-5.15 4-8 1.26-0.51 1-2 3.31-0.78 4.5-4 1.63 3.24 3.5 0.5-1.58-2.08-0.5-4.5 1.41 5.16 3.5 10 0 4 0 8 3.46-0.74 7-1 1.36 5.47 7 3.5 7.27-4.31 9-12.5 2.21-2.43 2-6-2.34-5.8-6-11-1.31-1.13-3-1.5-6.98-0.75-14-0.5 0-1.5 0-3 6.57-2.57 14-2 12.47 0.48 19 11 1 5.5 2 11-1.42 8.02-5.5 15-6.37 6.63-15.5 7 4.8 10.43 9 21 0.62 4.37 5 5.5-4.12 2.41-9 2.5-7.18-3.93-10.5-11-4.41-7.36-9.5-14-0.29-3.62-4-3 0 4 0 8-2.21 8.59-6 16.5-13.27 8.83-28 3-7.13-5.5-7.5-14.5-2.94 10.92-12.5 16.5-16.49 2.26-17-14.5-0.31-4.53-1-9-9.78-0.48-19 1-2.98 10.9-10 20-5.84 4.24-13 2.5-0.83-0.57-1-1.5-2.19-5.11 3-7 0.71 1.79 3 2 1.5-0.25 3-0.5 2.97-7.2 7-13.5-0.34-4.73 1-10 2.5-1 5-2 0.94-3.19 4-5 0.77-6.67 4-12 4.42-4.48 5-11 1.71-4.78 2-10-7.14-0.89-4-7.5 2-1 4 0 6.15 3.7 11.5 8.5 2.34 2.58 2.5 6z"/>
	</g>
	<g>
		<path fill-rule="evenodd" class="s166" d="m504.5 475.5q-1.62-0.06-3-1-1.48 4.39-1 9 0 2 0 4-1 1-2 2-0.21-9.05 1-18 0.65-1.81 2-3 1.49 0.13 2.5-1 0.75 3.97 0.5 8z"/>
	</g>
	<g>
		<path fill-rule="evenodd" class="s167" d="m505.5 473.5q0.26 1.49-1 2 0.25-4.03-0.5-8-1.01 1.13-2.5 1 1.18-2.41 4-2 0 3.5 0 7z"/>
	</g>
	<g>
		<path fill-rule="evenodd" class="s168" d="m449.5 460.5q2.14 3.02 2 7-2.14-3.02-2-7z"/>
	</g>
	<g>
		<path fill-rule="evenodd" class="s169" d="m539.5 473.5q-1.73 8.19-9 12.5-5.64 1.97-7-3.5-2.65-1.44-6-1 1.65-7.23 0-14-0.56-5.6-2-11 8.02-0.25 16 0.5 9.55 5.36 8 16.5z"/>
	</g>
	<g>
		<path fill-rule="evenodd" class="s170" d="m303.5 471.5q0 10.5 0 21-6.22 0.87-11-2 1.8-6.63 4.5-13 1.65-4.85 6.5-6z"/>
	</g>
	<g>
		<path fill-rule="evenodd" class="s171" d="m451.5 467.5q3.2 9.04 3 19-2.81-9.1-3-19z"/>
	</g>
	<g>
		<path fill-rule="evenodd" class="s172" d="m174.5 430.5q0.5 0 1 0 3.08 1.59 4 5-1.72 0.44-2 2.5 2.44 5.57 4 11.5-1.7 4.31-2 9-1.99 8.94-2 19 0 9.76 1 19-0.24 3.04 0.5 6 4.59 9.53 6.5 20 0 1.5 0 3-0.95-3.6-3-7-0.51 3.23 0 7-5.1-12.9-7-27-1.94 0.36-3-1 0.43-23.31 4-44 0.27-4.23 2-8 0.32-3.66-3-5-1.47-2.98-3-6 0.25-2.51 2-4z"/>
	</g>
	<g>
		<path fill-rule="evenodd" class="s173" d="m240.5 470.5q0 2.5 0 5-0.39 5.51-3 10 0.72-7.84 3-15z"/>
	</g>
	<g>
		<path fill-rule="evenodd" class="s174" d="m254.5 458.5q2.34 14.2-2 28 1.9-11.85 2-24 0-2 0-4z"/>
	</g>
	<g>
		<path fill-rule="evenodd" class="s175" d="m763.5 464.5q1.71 1.93 4 3-1.09 6.35-6.5 10-1.62 6.73-5.5 12 0-4 0-8 1.76 0.33 3-1 3.04-4.54 3-10 0.98 0.46 2 1 1.61-3.47 0-7z"/>
	</g>
	<g>
		<path fill-rule="evenodd" class="s170" d="m437.5 471.5q1.23 10.27 2 21-5.74 0.85-10-2 2.53-10.27 8-19z"/>
	</g>
	<g>
		<path fill-rule="evenodd" class="s176" d="m504.5 475.5q-2.94 2.85-4 8-0.48-4.61 1-9 1.38 0.94 3 1z"/>
	</g>
	<g>
		<path fill-rule="evenodd" class="s177" d="m176.5 453.5q-3.57 20.69-4 44-1.74-16.24-0.5-33 1.28-5.99 4.5-11z"/>
	</g>
	<g>
		<path fill-rule="evenodd" class="s178" d="m136.5 476.5q2.36 2.4 2 6-2.36-2.4-2-6z"/>
	</g>
	<g>
		<path fill-rule="evenodd" class="s179" d="m517.5 467.5q1.65 6.77 0 14 3.35-0.44 6 1-3.54 0.26-7 1 0-4 0-8 1.46-3.67 1-8z"/>
	</g>
	<g>
		<path fill-rule="evenodd" class="s180" d="m428.5 474.5q-3.23 5.33-4 12-3.06 1.81-4 5 1.71-9.65 8-17z"/>
	</g>
	<g>
		<path fill-rule="evenodd" class="s181" d="m499.5 471.5q-1.21 8.95-1 18-1.73-7.73-0.5-16 0.42-1.37 1.5-2z"/>
	</g>
	<g>
		<path fill-rule="evenodd" class="s182" d="m383.5 453.5q0 1.5 0 3-16.9-3.85-13.5 13 0.57 0.83 1.5 1 6.38 6.64 12.5 14 2.1 4.69 5 9 0.27 4.58 1.5 9 2.1-3.19 5.5-5 2.6 0.35 2.5 3-5.51 10.28-14 18.5-5.29 4.08-12 4.5-7.95 1.16-16 1-10.4-1.33-16.5-10-0.75-4.47-0.5-9 1.65-1.66 2-4 4.21-1.71 9-0.5 1.2 5.62 1.5 11.5 8.96 9.43 19 1 0.77-4.13 3.5-7 1.73-3.91 0.5-8-5.92-9.22-9-20-1.17-1.84-3-3-5.32 5.66-5.5 13.5-8.24 0.73-5.5-7.5 1.58-4.84 4.5-9 1.5 0 3 0 1.81-6.43 3-13-0.4-2.4 1-4 2.11-0.71 2-3 4.49-7.14 13-4.5 2.81 2.56 5 5.5z"/>
	</g>
	<g>
		<path fill-rule="evenodd" class="s183" d="m773.5 462.5q-0.12 3.25-2 6 0.5 1 1 2 1.68-2.68 4-1-3.38 3.01-4 7.5 0.88 10.9 3 21.5-4.24 0.29-8 2-0.26 1.98 1 3.5-1.42 0.72-3 0.5-0.96 10.24-2 20.5 0 3.73 2 6.5 1.83 9.21 0 18 0.25-6.52-0.5-13-3.5-15.5-7-31-1.25-1.5-2.5-3-1.97-6.73 0-13 3.88-5.27 5.5-12 5.41-3.65 6.5-10 3.92-1.43 6-5z"/>
	</g>
	<g>
		<path fill-rule="evenodd" class="s184" d="m702.5 474.5q-0.56 11.33-3 22 0.13-11.39 3-22z"/>
	</g>
	<g>
		<path fill-rule="evenodd" class="s185" d="m317.5 475.5q1.48 8.21 1 17 2.4-0.4 4 1-2.5 0-5 0 0-7 0-14 0-2 0-4z"/>
	</g>
	<g>
		<path fill-rule="evenodd" class="s186" d="m131.5 475.5q2.57 0.19 5 1-0.36 3.6 2 6-0.38 3.44 1 6.5-2.8 4.06-5 8.5-2.43-2.48-3.5-6-1.17-8.13 0.5-16z"/>
	</g>
	<g>
		<path fill-rule="evenodd" class="s187" d="m702.5 474.5q-2.87 10.61-3 22-0.97 2.9-1 6-1.97 6.77 0 14 0.91-0.19 1-1 4.58-8.65 10-17 2.78-1.89 5.5 0-0.74 18.22-17.5 25.5-9.3 2.73-11.5-6.5-0.75-11.99-0.5-24 2.25-2.68 2-6.5-0.5-2.25-1-4.5-2.5 3.98-5 8-6.59 8.64-12.5 18 0.41 9.18-4 17-2.58 3.09-6 5-7.85-3.42-4.5-11 1.97-4.69-1-9-1.41-17.15-5-34-0.91 0.19-1 1-3.71 14.58-7 29-2-2.77-2-6.5 2.45-12.11 3-24.5 1.01-8.57 3-17-1.95-4.45-6-7 0-2 0-4 2.5 0 5 0 8.75 3.13 15 10 4.02 15.05 7 30 0.64 5.72 2.5 11 1.56-1.12 1.5-3 3.73-7.25 8-14 4.91-2.98 5-9 2 0 4 0 0-2 0-4 0-1 1-1 4.61-3.72 5-10 7.51-16.68 24.5-9 1.27 4.63-1.5 8.5-5.96-0.03-12-0.5-0.3 9.01-1 18z"/>
	</g>
	<g>
		<path fill-rule="evenodd" class="s188" d="m685.5 493.5q0.77-7-4-3 2.5-4.02 5-8 0.5 2.25 1 4.5 0.25 3.82-2 6.5z"/>
	</g>
	<g>
		<path fill-rule="evenodd" class="s189" d="m658.5 457.5q2.09 2.66 3.5 6 2.8 10.84 3.5 22 0 1 0 2-2.98-14.95-7-30z"/>
	</g>
	<g>
		<path fill-rule="evenodd" class="s190" d="m682.5 472.5q-0.09 6.02-5 9 1.67-5.03 5-9z"/>
	</g>
	<g>
		<path fill-rule="evenodd" class="s191" d="m686.5 468.5q0 2 0 4-2 0-4 0 2-2 4-4z"/>
	</g>
	<g>
		<path fill-rule="evenodd" class="s192" d="m692.5 457.5q-0.39 6.28-5 10 2.51-5.14 5-10z"/>
	</g>
	<g>
		<path fill-rule="evenodd" class="s193" d="m179.5 458.5q-1.31 18.97-1 38-1-9.24-1-19 0.01-10.06 2-19z"/>
	</g>
	<g>
		<path fill-rule="evenodd" class="s194" d="m491.5 473.5q-0.25 7.52 0.5 15 0.35 6.74 6.5 9-1.21 2.36-1 5-1.84 5.78-3.5 12-1.35 1.8-3.5 2.5-12.67-0.72-9.5-13.5 4.29-3.88 7.5-8.5-0.48-3.56-4-3.5 1.68-2.17 4.5-3 0.02-7.93 2.5-15z"/>
	</g>
	<g>
		<path fill-rule="evenodd" class="s195" d="m611.5 471.5q-0.97 2.9-1 6-1.94 8.83-2.5 18-2.89 8.29-4.5 17 9.6-4.02 14-14 6.78-3.13 5.5 4-4.38 7.25-9.5 14-6.77 1.64-13 4-5.62-0.15-10 3.5-13.77 3.01-22.5-7.5-6.24-17.99 11-25 5.64-0.61 4.5 5-11.98 2.74-10.5 15 1.61 3.87 5.5 5 3.7 1.7 8 0.5 0.63-4.96 4-8.5 1.03-11.27 3-22 2.18 5.23 3 11-0.98 5.31-1 11.5 0.5 0.75 1 1.5 2.87-3.24 5-7-4.4-3.36 1-3 1.73-7.9 2.5-16 1-1 2-2 1.16-5.04 2.5-10 0.69-1.2 2-1z"/>
	</g>
	<g>
		<path fill-rule="evenodd" class="s57" d="m437.5 471.5q0.09-0.81 1-1 1.35 11.48 2 23-6 0-12 0-0.36-1.94 1-3 4.26 2.85 10 2-0.77-10.73-2-21z"/>
	</g>
	<g>
		<path fill-rule="evenodd" class="s196" d="m665.5 485.5q1.58 5.33 4 10 0.06 1.88-1.5 3-1.86-5.28-2.5-11 0-1 0-2z"/>
	</g>
	<g>
		<path fill-rule="evenodd" class="s184" d="m285.5 488.5q-0.81 2.43-1 5-2.5 0-5 0 1.6-1.4 4-1-0.41-2.82 2-4z"/>
	</g>
	<g>
		<path fill-rule="evenodd" class="s197" d="m303.5 471.5q1.49 10.72 1 22-6.5 0-13 0-0.36-1.94 1-3 4.78 2.87 11 2 0-10.5 0-21z"/>
	</g>
	<g>
		<path fill-rule="evenodd" class="s198" d="m454.5 492.5q3 0 6 0 0 2 0 4 0.4 2.4-1 4 0-3.5 0-7-2.87 0.43-5-1z"/>
	</g>
	<g>
		<path fill-rule="evenodd" class="s199" d="m129.5 479.5q-0.49 24.26 1 48 0 2.5 0 5-1.19-1.66-1.5-4-0.75-8.49-0.5-17-0.49-16.27 1-32z"/>
	</g>
	<g>
		<path fill-rule="evenodd" class="s200" d="m251.5 495.5q-0.51 6.53-4 12 0.69 1.2 2 1-1.06 1.36-3 1 1.91-7.25 5-14z"/>
	</g>
	<g>
		<path fill-rule="evenodd" class="s201" d="m261.5 502.5q-0.33-3.86-4-2.5-2.3 6.04-8 8.5 4.87-4.62 8-10.5 6.77-1.49 4 4.5z"/>
	</g>
	<g>
		<path fill-rule="evenodd" class="s202" d="m279.5 493.5q-0.27 4.35 1 8.5-0.5 1.54-2 1.5-2.41-5.46 1-10z"/>
	</g>
	<g>
		<path fill-rule="evenodd" class="s203" d="m415.5 493.5q-1.34 5.27-1 10-2.21-5.4 1-10z"/>
	</g>
	<g>
		<path fill-rule="evenodd" class="s204" d="m637.5 493.5q0.36 3.6-2 6-0.36-3.6 2-6z"/>
	</g>
	<g>
		<path fill-rule="evenodd" class="s205" d="m641.5 475.5q-0.55 12.39-3 24.5 0 3.73 2 6.5 0.31 4.49-2 8 0.46-3.64-1-7-2.68 4.44-6 8.5-4.98 0.75-10 0.5 0.19 2.57 1 5-4.37-2.21-2-6.5 5.48-0.75 11-0.5 0.14-3.43 2-6 2.14-3.02 2-7 0-1 0-2 2.36-2.4 2-6 1.07-9.38 4-18z"/>
	</g>
	<g>
		<path fill-rule="evenodd" class="s206" d="m236.5 492.5q0.8 4.8-2 8 0.1-4.39 2-8z"/>
	</g>
	<g>
		<path fill-rule="evenodd" class="s207" d="m286.5 501.5q9.72-1.49 20-1 0 4 0 8-1.45-3.16-1-7-9.5 0-19 0z"/>
	</g>
	<g>
		<path fill-rule="evenodd" class="s208" d="m422.5 501.5q9.22-1.48 19-1 0.69 4.47 1 9-1.9-3.61-2-8-9 0-18 0z"/>
	</g>
	<g>
		<path fill-rule="evenodd" class="s209" d="m517.5 497.5q-3.05 1.64-4 5 0-4 0-8 3.71-0.62 4 3z"/>
	</g>
	<g>
		<path fill-rule="evenodd" class="s210" d="m647.5 477.5q0.09-0.81 1-1 3.59 16.85 5 34-1.5 0-3 0 0.65-16.91-3-33z"/>
	</g>
	<g>
		<path fill-rule="evenodd" class="s211" d="m780.5 474.5q-1.6 7.92-0.5 16 6.71 17.2 4.5 35 0.25-6.02-0.5-12-7.66-18.24-5-38 0.57-0.83 1.5-1z"/>
	</g>
	<g>
		<path fill-rule="evenodd" class="s212" d="m339.5 500.5q-0.31 3.28-2 6-1.73 3.49-3 7 0.56-4.35-1.5-8-1.32 3.77-4.5 6 1.9-6.81 5.5-13 4.22-2.52 5.5 2z"/>
	</g>
	<g>
		<path fill-rule="evenodd" class="s213" d="m339.5 500.5q1 0.5 2 1-0.35 2.34-2 4-1 0.5-2 1 1.69-2.72 2-6z"/>
	</g>
	<g>
		<path fill-rule="evenodd" class="s160" d="m635.5 501.5q0.14 3.98-2 7-0.14-3.98 2-7z"/>
	</g>
	<g>
		<path fill-rule="evenodd" class="s214" d="m136.5 476.5q-2.43-0.81-5-1-2.51 1.03-2 4-1.49 15.73-1 32-1.74-17.24-0.5-35 2.73-4.05 7.5-2.5 1.13 1.01 1 2.5z"/>
	</g>
	<g>
		<path fill-rule="evenodd" class="s215" d="m218.5 515.5q-1.5 0-3 0 0.46-3.64-1-7-1.85-1.12-4-1 0 3.5 0 7-1.7-3.7-0.5-8 3-2 6 0 0.12 5 2.5 9z"/>
	</g>
	<g>
		<path fill-rule="evenodd" class="s216" d="m131.5 475.5q-1.67 7.87-0.5 16 1.07 3.52 3.5 6 2.2-4.44 5-8.5-1.38-3.06-1-6.5 0.92 4.21 3.5 8 6.57 6.32 13.5 12 0.89 0.98 2 2-3.49 1.34-7 0.5 1.89 2.72 0 5.5-3.01-2.51-7-2 0.22 1.58-0.5 3-1.06-2.21-3.5-2 0.25 7.02-0.5 14-0.56-1.37-1.5-2.5 1.58-2.08 0.5-4.5-1.34-1.82-2.5 0 1.89 4.88 0 10.5 0.39 5.55 3 10.5-1.12 2.87 0 6-1.5 0-3 0 0 2.5 0 5-1.5 0-3 0 0.48-8.29-1-16-0.5 0-1 0 0-2.5 0-5-1.49-23.74-1-48-0.51-2.97 2-4z"/>
	</g>
	<g>
		<path fill-rule="evenodd" class="s217" d="m773.5 461.5q0.5 0 1 0 2.49 6.83 10 7 0 1.5 0 3-1.5 0-3 0 0.36 1.94-1 3-0.93 0.17-1.5 1-2.66 19.76 5 38 0.75 5.98 0.5 12-1.71 3.88-5.5 6-1.46 2.84-2 6-1.01 1.13-2.5 1-0.63-3.26 0-6-1.24-1.33-3-1 0.31-3.63-1-7 1.24-1.33 3-1 0.07-8.57 0.5-17-0.46-1.21-1.5-2-1.98 2.65-4.5 1-1.53 2.09-2.5 4.5 0.22 10.56 0 21.5-2-2.77-2-6.5 1.04-10.26 2-20.5 1.58 0.22 3-0.5-1.26-1.52-1-3.5 3.76-1.71 8-2-2.12-10.6-3-21.5 0.62-4.49 4-7.5-2.32-1.68-4 1-0.5-1-1-2 1.88-2.75 2-6 0-0.5 0-1z"/>
	</g>
	<g>
		<path fill-rule="evenodd" class="s218" d="m322.5 500.5q-1.35 0.99-3 2 1.36 4.38 1 9-2.37-5.06-2-11 2 0 4 0z"/>
	</g>
	<g>
		<path fill-rule="evenodd" class="s219" d="m460.5 496.5q1.43 2.13 1 5-2 0-4 0-0.3 5.16 1.5 10 3.19-2.04 1.5 1 0.69 1.2 2 1-1.27 3.39-5 3-0.72-7.98-1-16 1.5 0 3 0 1.4-1.6 1-4z"/>
	</g>
	<g>
		<path fill-rule="evenodd" class="s220" d="m233.5 507.5q-2.24 3.62-3 8-0.69 1.2-2 1 2.09-3.68 2.5-8 1.01-1.13 2.5-1z"/>
	</g>
	<g>
		<path fill-rule="evenodd" class="s221" d="m328.5 511.5q-1 4-5 5 2-3 5-5z"/>
	</g>
	<g>
		<path fill-rule="evenodd" class="s222" d="m698.5 502.5q-0.48 6.8 1 13-0.09 0.81-1 1-1.97-7.23 0-14z"/>
	</g>
	<g>
		<path fill-rule="evenodd" class="s223" d="m320.5 511.5q0.71 3.05 3 5-1.06 1.36-3 1 0-3 0-6z"/>
	</g>
	<g>
		<path fill-rule="evenodd" class="s224" d="m590.5 508.5q-3.37 3.54-4 8.5-4.3 1.2-8-0.5 3.54 0.25 7-0.5 1.12-2.6 1.5-5.5 1.22-1.98 3.5-2z"/>
	</g>
	<g>
		<path fill-rule="evenodd" class="s225" d="m638.5 514.5q-2.12 11.82-14 9.5-1.32-1.06-2-2.5-0.81-2.43-1-5 5.02 0.25 10-0.5 3.32-4.06 6-8.5 1.46 3.36 1 7z"/>
	</g>
	<g>
		<path fill-rule="evenodd" class="s226" d="m401.5 515.5q-5.19 1.89-3 7-4.81-3.13-3.5-9 2.59-1.61 5.5-0.5 1.13 1.01 1 2.5z"/>
	</g>
	<g>
		<path fill-rule="evenodd" class="s227" d="m653.5 510.5q2.97 4.31 1 9-0.31-4.53-1-9z"/>
	</g>
	<g>
		<path fill-rule="evenodd" class="s228" d="m166.5 516.5q2.93 3.79 5 8 0.35 2.34 2 4-2 0-4 0-2.98-3.93-3-9-6.63-1.61-6 5 1.5 5 3 10-3.31 9.59 4.5 16 0.27 4.79 1.5 9 2.34 5.89 6 11-2.28 2.48 1 3.5-1.22 1.97-3 3.5 0.19 0.91 1 1-0.23 4.62 2 8.5-0.13 1.66-1 3 6.02-0.28 9 4.5-5.24-2.41-11-3-4.15-4.79-6-11-3.05-0.81-6-2-6.3-5.4-14-8.5-2.88-4.69-5.5-9.5-1.11-2.91 0.5-5.5 3.56-0.13 7 1.5 4.16 6.16 8.5 12 5.49 3.35 10.5 7 0.5-0.75 1-1.5-3.76-4.78 0-9.5-0.79-2.93-3-5 1.59-3.9 0.5-8-2.56-1.21-2.5-4-1.5 0-3 0-0.79-6.77-2-13.5-1.2-3.43-4-5.5-0.24-2.48-2-4 0-4 0-8 4.12 0.47 8-1-1.27-2.86-1-6 5.15 1.65 6 7z"/>
	</g>
	<g>
		<path fill-rule="evenodd" class="s229" d="m248.5 517.5q-2.15 1.56-5 2 1.7-2.57 5-2z"/>
	</g>
	<g>
		<path fill-rule="evenodd" class="s230" d="m537.5 522.5q4.88-0.09 9-2.5-4.38-1.13-5-5.5 2.61 2.9 6 1 3.52-4.05 5.5-9 1.52-1.26 3.5-1 0.25-4.76 3-8.5 4.53-1.23 5 3.5-3.72 8.45-7.5 17-5.31 5.9-13 7-3.82 0.25-6.5-2z"/>
	</g>
	<g>
		<path fill-rule="evenodd" class="s231" d="m613.5 516.5q-1.27 2.2-4 2.5-4.47 1.04-9 1.5 6.23-2.36 13-4z"/>
	</g>
	<g>
		<path fill-rule="evenodd" class="s232" d="m130.5 527.5q-0.25-8.02 0.5-16 4.38 5.38 3.5 12.5-0.5 3.75-1 7.5-1.53-2.1-3-4z"/>
	</g>
	<g>
		<path fill-rule="evenodd" class="s233" d="m217.5 522.5q7.44 1.13 15 1-2.71 0.99-6 1-4.97 0.24-9-2z"/>
	</g>
	<g>
		<path fill-rule="evenodd" class="s234" d="m372.5 523.5q-0.63 1.08-2 1.5-7.28 1.22-14-0.5 8.05 0.16 16-1z"/>
	</g>
	<g>
		<path fill-rule="evenodd" class="s235" d="m171.5 524.5q2.31 1.2 5 1-0.2 2.69 1 5-2.34-0.35-4-2-1.65-1.66-2-4z"/>
	</g>
	<g>
		<path fill-rule="evenodd" class="s236" d="m185.5 525.5q3.23 7.22 1 15-1.02-1.11-2-2 0.52-6.93-2-13-0.51-3.77 0-7 2.05 3.4 3 7z"/>
	</g>
	<g>
		<path fill-rule="evenodd" class="s237" d="m258.5 557.5q-1.08-0.63-1.5-2-0.5-7-1-14-1.48-2.51-2.5-5 0.62-10.92-9-5 0.81-2.43 1-5 6.14 0.11 9.5 5 3.03 12.83 3.5 26z"/>
	</g>
	<g>
		<path fill-rule="evenodd" class="s238" d="m244.5 531.5q0.14 9.54-1 19-0.86 12.68-6.5 24-4.11 2.35-3.5 7-1.56 2.15-2 5-1 3-2 6 0.74-14.48 9.5-26 3.69-17.56 5.5-35z"/>
	</g>
	<g>
		<path fill-rule="evenodd" class="s239" d="m185.5 522.5q2.74 3.95 3.5 9 0.5 11 1 22 2.49 3.99 5 8 0.43 13.54 1.5 27-1.15-1.14-1.5-3-0.41-11.03-1.5-22-4.89-13.1-12-25 0.98 0.89 2 2 1.2-0.69 1-2 0.98 0.89 2 2 2.23-7.78-1-15 0-1.5 0-3z"/>
	</g>
	<g>
		<path fill-rule="evenodd" class="s240" d="m153.5 524.5q1.76 1.52 2 4 1.46 9.54 5 18.5-2.69 7.88-4.5 0.5-0.84 0.78-2 1-3.66-1.95-7.5-3-1.33-7.88-4-15.5 3.38-2.75 0-5 1.42-4.08 1-8.5 2.75-0.83 5 0 2.8 4.08 5 8z"/>
	</g>
	<g>
		<path fill-rule="evenodd" class="s241" d="m155.5 502.5q7.73 1.47 10.5 9 0.74 2.45 0.5 5-0.85-5.35-6-7-0.27 3.14 1 6-3.88 1.47-8 1 0 4 0 8-2.2-3.92-5-8-2.25-0.83-5 0 0.42 4.42-1 8.5 3.38 2.25 0 5 2.67 7.62 4 15.5 3.84 1.05 7.5 3 1.16-0.22 2-1 1.81 7.38 4.5-0.5-3.54-8.96-5-18.5 2.8 2.07 4 5.5 1.21 6.73 2 13.5 1.5 0 3 0-0.06 2.79 2.5 4 1.09 4.1-0.5 8 2.21 2.07 3 5-3.76 4.72 0 9.5-0.5 0.75-1 1.5-5.01-3.65-10.5-7-4.34-5.84-8.5-12-3.44-1.63-7-1.5-1.61 2.59-0.5 5.5 2.62 4.81 5.5 9.5 7.7 3.1 14 8.5 2.95 1.19 6 2 1.85 6.21 6 11-6.12 0.46-8-5-2.73-2.27-3-6-8.51-5.73-17.5-11-4.17-7.68-7-16-2.11-3.37-5.5-5 1.5 0 3 0 0-2.5 0-5 1.5 0 3 0-1.12-3.13 0-6-2.61-4.95-3-10.5 1.89-5.62 0-10.5 1.16-1.82 2.5 0 1.08 2.42-0.5 4.5 0.94 1.13 1.5 2.5 0.75-6.98 0.5-14 2.44-0.21 3.5 2 0.72-1.42 0.5-3 3.99-0.51 7 2 1.89-2.78 0-5.5 3.51 0.84 7-0.5-1.11-1.02-2-2z"/>
	</g>
	<g>
		<path fill-rule="evenodd" class="s242" d="m835.5 540.5q-3.67 2.86-6 7-1.97 1.46-4 3-1.39-1.71-2.5 0-0.24-3.74-0.5-7-2.45 1.2-4.5 3-2.95-2.59-6.5-4 7.75-2.38 15.5-5 3.14-5.42 9.5-5-0.11 4.06-1 8z"/>
	</g>
	<g>
		<path fill-rule="evenodd" class="s243" d="m769.5 550.5q-0.97 2.9-1 6 4.57-1.21 9-3 7.86-2.09 16-3 0.5 1.25 1 2.5-4.32 6.28 1 11.5-1.21 2.36-1 5-0.98 0.46-2 1-1-2.5-2-5-2.54 1.01-5 2-6.76-2.52-3.5-9 1.86 1.25 3.5-1-2.36-1.7-5-0.5-4.24 2.5-9 3.5 2.96-2.11 6-4.5-4.78 1.33-10 2.5-0.25-3.54 0.5-7 0.57-0.83 1.5-1z"/>
	</g>
	<g>
		<path fill-rule="evenodd" class="s244" d="m169.5 528.5q-2.17 0.95-2 3.5 2.67 7.04 3.5 15.5 2.04 4.93 7.5 4.5-1.39 0.58-2 2 1.19 1.65 0 2.5-3.34-1.62-7-2 0 2.5 0 5-1.23-4.21-1.5-9-7.81-6.41-4.5-16-1.5-5-3-10-0.63-6.61 6-5 0.02 5.07 3 9z"/>
	</g>
	<g>
		<path fill-rule="evenodd" class="s245" d="m774.5 538.5q-3.07 5.71-5 12-0.93 0.17-1.5 1-0.75 3.46-0.5 7 5.22-1.17 10-2.5-3.04 2.39-6 4.5-2.35 1.77-2.5 5-1.66 2.31-4.5 2-1.18-0.42-2-1.5 2.36-2.74 2.5-6.5 0.75-4.47 0.5-9 0-0.5 0-1 1.83-8.79 0-18 0.22-10.94 0-21.5 0.97-2.41 2.5-4.5 2.52 1.65 4.5-1 1.04 0.79 1.5 2-0.43 8.43-0.5 17-1.76-0.33-3 1 1.31 3.37 1 7 1.76-0.33 3 1-0.63 2.74 0 6z"/>
	</g>
	<g>
		<path fill-rule="evenodd" class="s246" d="m131.5 532.5q1.48 7.71 1 16 3.39 1.63 5.5 5 2.83 8.32 7 16 8.99 5.27 17.5 11 0.27 3.73 3 6-7.2-3.36-13-9-9.52-3.73-15-12.5-1.82-7.71-5-14.5-1.49-8.94-1-18z"/>
	</g>
	<g>
		<path fill-rule="evenodd" class="s247" d="m169.5 528.5q2 0 4 0 1.66 1.65 4 2 2 4 4 8 7.11 11.9 12 25 1.09 10.97 1.5 22 0.35 1.86 1.5 3 0 2.5 0 5-1.5 0-3 0 0-10.5 0-21 0.18-7-4.5-3-8.61-3.11-12.5-11.5-1.5-1-3 0 5.56 8.19 7 18-1.21 1.67-2 3.5-1.81-1.1-4-1-0.81-0.09-1-1 1.78-1.53 3-3.5-3.28-1.02-1-3.5-3.66-5.11-6-11 0-2.5 0-5 3.66 0.38 7 2 1.19-0.85 0-2.5 0.61-1.42 2-2-5.46 0.43-7.5-4.5-0.83-8.46-3.5-15.5-0.17-2.55 2-3.5z"/>
	</g>
	<g>
		<path fill-rule="evenodd" class="s248" d="m233.5 581.5q-0.61-4.65 3.5-7 5.64-11.32 6.5-24 1.76-2.21 3-5 1.94 0.9 4 1.5 1.71 9.63 0.5 19.5-5.54 5.31-8.5 12.5 3.12 9.87 0 19.5 5.43 10.13-5.5 13-1.03-2.79-3-5-1.87-12.52-0.5-25z"/>
	</g>
	<g>
		<path fill-rule="evenodd" class="s249" d="m785.5 567.5q-0.5 1-1 2-5.99-0.75-5 4.5-3.05 5.94-6 11.5-1.54 0.6-0.5 2 6.51-2.8 3 3-3.1 1.15-6.5 1.5-2.7 0.95-4 3.5 1.21 3.64 3 7 0.75-1.65 1-3 4.19 3.95 7-1.5 2.29-1.51 5-1.5-4.56 1.85-4 7-5.45-0.7-10 2-2.09-4.71-4-9.5 3.33-4.67 8-8-0.08-6.34 0-12.5-3.67 0.62-4-3 3.13-4.56 6-9.5-1.88-0.63-2-2.5 4.76-1 9-3.5 2.64-1.2 5 0.5-1.64 2.25-3.5 1-3.26 6.48 3.5 9z"/>
	</g>
	<g>
		<path fill-rule="evenodd" class="s250" d="m253.5 536.5q1.02 2.49 2.5 5 0.5 7 1 14 0.42 1.37 1.5 2 0 0.5 0 1-0.49 5.78 2 11-1.29 3.4-5 3-1.31 4.82-6 7 0.5 1 1 2-1.07 3.41-1.5 7-0.87 4.61-3.5 8 0.5-4.99 1-10-3.42-6.07 0-12 2.26-1.87 4.5 0 5.47-18.69 2.5-38z"/>
	</g>
	<g>
		<path fill-rule="evenodd" class="s251" d="m835.5 540.5q0.89-3.94 1-8-6.36-0.42-9.5 5-7.75 2.62-15.5 5-5 1-10 2 0 1.5 0 3 2.55-0.24 5 0.5-2.67 1.6-1.5 4.5 2.19-1.87 4.5 0 5.68-1.72 10.5-5 1.27 4.49-3.5 4 0.19 6.32-5 10-3.96 13.2-13.5 23-0.5 2-1 4-1 2-2 0-1.87 5.45-7 4-2.9 2.58-6.5 4-0.13-1.49 1-2.5 10.61-4.55 10.5-16.5 1.24-1.74 2.5-3.5-1.26-2.59-1-4.5-0.21-2.64 1-5-5.32-5.22-1-11.5-0.5-1.25-1-2.5-8.14 0.91-16 3 0.18-1.63 2-2 11.42-1.21 21-7.5 7.59-2.02 15-4.5 4.1-2.04 7-5.5 7.37-2.12 15-2.5 0.65 5.07-2 9z"/>
	</g>
	<g>
		<path fill-rule="evenodd" class="s252" d="m751.5 570.5q-2.91 8.24-11 12-4.61 6.12-11 10 1.46-2.97 3-6 7.74-10.25 19-16z"/>
	</g>
	<g>
		<path fill-rule="evenodd" class="s253" d="m193.5 572.5q-2.26 4.64-4 10 1.16 1.82 2.5 0 0.75 5.98 0.5 12-2.68 0.43-5-1 0.31-0.88 1-1.5-2-0.5-4-1-0.34-1.7-1-3.5-3.98 2.28-2-1.5-2.13-3.01-3-6.5 0.79-1.83 2-3.5-1.44-9.81-7-18 1.5-1 3 0 3.89 8.39 12.5 11.5 4.68-4 4.5 3z"/>
	</g>
	<g>
		<path fill-rule="evenodd" class="s254" d="m765.5 550.5q0.25 4.53-0.5 9-0.14 3.76-2.5 6.5 0.82 1.08 2 1.5-0.61 1.88-2 3.5 2.29 1.79 3.5 4.5 0.73 5.43 3.5 10-1.46 2.71-3.5 5-2.82-2.14-4.5 1 1 4.05 2 8-3.83 1.66-8 2.5-10.47 11.91-6-2.5 1.5 0 3 0 0.28-3.1 1.5-6 15.75-9.03 5-24-5.2 0.6-8 5-1.88 7.43-4.5 14.5-1.42 0.93-2.5-0.5-1.38 1.89-2.5 4-0.88-0.31-1.5-1-3.1 1.15-6.5 1.5-5.22 4.91-7 11.5-1.77-2.45 0-5-1.39-1.59-3 0 2.92-3.43 6-7 6.39-3.88 11-10 8.09-3.76 11-12 5.17-3.08 10-7 2.74-6.48 4-13z"/>
	</g>
	<g>
		<path fill-rule="evenodd" class="s255" d="m612.5 580.5q-1.93-2.62-4.5-1-0.75 4.47-0.5 9 0.24 2.06-0.5 4-0.5-0.5-1-1-0.91 2.35-2.5 4 1.19-8.45 1-17 3.48-1 7-0.5 1.13 1.01 1 2.5z"/>
	</g>
	<g>
		<path fill-rule="evenodd" class="s256" d="m763.5 599.5q0.16 3.02-2 5-3.15 1.39-5 4.5 2.77 2.13 6 3.5 1.21 2.36 1 5 2.15 0.12 4-1 1.33 1.24 1 3-4.14-0.18-6 3.5-1.94 0.74-4 0.5-0.3 2.84 2 4.5-4.13 1.41-8 2.5-1 1-2 2-5.2-1.8-10 0-12.93 1.16-26 1.5-1.46 2.22-4 2.5 0-0.5 0-1 2.5-1.5 4-4 2 0 4 0 10.5 0 21 0-0.96-2.94 0-5.5-1.76-0.63-3-2 2.53-6.06 6.5-11.5 0.99-3.82-0.5-7.5 2.27-2.82 2-6.5-2.06-0.24-4 0.5-4.7 3.84-7 9.5-1.24 1.33-3 1 0.2 3.08-2 5-2.93 2.47-7 2 0.84-5.51 2-11-0.35-2.15-2-1.5-1.04 4.04-4.5 6.5 0.1 6.32-3.5 11 1.3-5.95 2.5-12 3.4-2.12 3.5-6 3-1 4-4 1.61-1.59 3 0-1.77 2.55 0 5 1.78-6.59 7-11.5 3.4-0.35 6.5-1.5 0.62 0.69 1.5 1 1.12-2.11 2.5-4 1.08 1.43 2.5 0.5 2.62-7.07 4.5-14.5 2.8-4.4 8-5 10.75 14.97-5 24-1.22 2.9-1.5 6-1.5 0-3 0-4.47 14.41 6 2.5 4.17-0.84 8-2.5z"/>
	</g>
	<g>
		<path fill-rule="evenodd" class="s257" d="m173.5 591.5q5.76 0.59 11 3 2.24 0.73 4 2-8.12-1.04-15-5z"/>
	</g>
	<g>
		<path fill-rule="evenodd" class="s258" d="m258.5 558.5q1.75 5.27 3 11 0.2 5.08 0.5 10-2.44-1.6-3.5-4-8.58 4.04-6 13-1.71 6.61-5 12.5 2.36 2.99-1 4.5-0.69-4.47-1-9 2.63-3.39 3.5-8 0.43-3.59 1.5-7-0.5-1-1-2 4.69-2.18 6-7 3.71 0.4 5-3-2.49-5.22-2-11z"/>
	</g>
	<g>
		<path fill-rule="evenodd" class="s259" d="m603.5 595.5q1.59-1.65 2.5-4 0.5 0.5 1 1 0.74-1.94 0.5-4 2.82-15.89 5 1-2.73 6.05-4 13-4.71 2.71-6 8-1.58-1.41-2-3.5 2.28-5.58 3-11.5z"/>
	</g>
	<g>
		<path fill-rule="evenodd" class="s260" d="m196.5 588.5q1.19 1.66 1.5 4 0.8-2.66 2.5-1 2.07 2.73 3 6-4.63-0.35-7-4 0-2.5 0-5z"/>
	</g>
	<g>
		<path fill-rule="evenodd" class="s261" d="m732.5 586.5q-1.54 3.03-3 6-3.08 3.57-6 7-1 3-4 4 2.79-3.37 3-8 5.92-0.92 7-7 1.15-1.67 3-2z"/>
	</g>
	<g>
		<path fill-rule="evenodd" class="s262" d="m193.5 572.5q0 10.5 0 21 1.5 0 3 0 2.37 3.65 7 4 1.26 0.51 1 2 0.3 2.32 2 4-0.69 1.2-2 1-4.25-4.02-9.5-7-1 2 0 4 3.74 2.62 6.5 6-1.06 2.45-3.5 4-0.42-1.37-1.5-2-4.42-4.67-5.5-11-1.06-1.32-2.5-2-1.76-1.27-4-2-2.98-4.78-9-4.5 0.87-1.34 1-3-2.23-3.88-2-8.5 2.19-0.1 4 1 0.87 3.49 3 6.5-1.98 3.78 2 1.5 0.66 1.8 1 3.5 2 0.5 4 1-0.69 0.62-1 1.5 2.32 1.43 5 1 0.25-6.02-0.5-12-1.34 1.82-2.5 0 1.74-5.36 4-10z"/>
	</g>
	<g>
		<path fill-rule="evenodd" class="s263" d="m261.5 569.5q6.45 8.2 7 19-3.9 13.07-7 26-0.47-6.27 2-12-0.08-1.86-1.5-3-2.19 4.66-5.5 8.5 1.38 3.06 1 6.5-2 0-4 0 0.18-2.98-2-5-3.23-0.75-5-3 0-0.5 0-1 3.36-1.51 1-4.5 3.29-5.89 5-12.5-2.58-8.96 6-13 1.06 2.4 3.5 4-0.3-4.92-0.5-10z"/>
	</g>
	<g>
		<path fill-rule="evenodd" class="s264" d="m94.5 604.5q1.68-0.98 4-1 13.03 0.88 24 7-5.07-0.69-10-2-3.4-1.08-7-1-4.63-3.83-11-3z"/>
	</g>
	<g>
		<path fill-rule="evenodd" class="s265" d="m612.5 580.5q1.6 9.88 4 20 2.53 9.94-5.5 1-0.74 2.96-0.5 6 0 1.5 0 3-3.37 0.65-6.5 2-3.1 6.31-5 13-2.5 2.5-5 5-0.74-1.94-0.5-4 3.88-15.97 10-31-0.72 5.92-3 11.5 0.42 2.09 2 3.5 1.29-5.29 6-8 1.27-6.95 4-13-2.18-16.89-5-1-0.25-4.53 0.5-9 2.57-1.62 4.5 1z"/>
	</g>
	<g>
		<path fill-rule="evenodd" class="s266" d="m811.5 542.5q3.55 1.41 6.5 4 2.05-1.8 4.5-3 0.26 3.26 0.5 7 1.11-1.71 2.5 0 2.03-1.54 4-3-4.3 6.57-10.5 12-3.97 8.23-7 17-3.09 3.42-6.5 6.5-3.89 8.98-8 17.5 0.45-3.16-1-6-3.72 2.1-8 2.5-6 6-12 12-2.5 1.25-5 2.5-5.59-2.28-11-5 0.54-1.02 1-2 2.16-1.98 2-5-1-3.95-2-8 1.68-3.14 4.5-1 2.04-2.29 3.5-5-2.77-4.57-3.5-10-1.21-2.71-3.5-4.5 1.39-1.62 2-3.5 2.84 0.31 4.5-2 0.15-3.23 2.5-5 0.12 1.87 2 2.5-2.87 4.94-6 9.5 0.33 3.62 4 3-0.08 6.16 0 12.5-4.67 3.33-8 8 1.91 4.79 4 9.5 4.55-2.7 10-2-0.56-5.15 4-7 3.6-1.42 6.5-4 5.13 1.45 7-4 1 2 2 0 0.5-2 1-4 9.54-9.8 13.5-23 5.19-3.68 5-10 4.77 0.49 3.5-4-4.82 3.28-10.5 5-2.31-1.87-4.5 0-1.17-2.9 1.5-4.5-2.45-0.74-5-0.5 0-1.5 0-3 5-1 10-2z"/>
	</g>
	<g>
		<path fill-rule="evenodd" class="s267" d="m794.5 569.5q-0.26 1.91 1 4.5-1.26 1.76-2.5 3.5 0.11 11.95-10.5 16.5-1.13 1.01-1 2.5-2.71-0.01-5 1.5-2.81 5.45-7 1.5-0.25 1.35-1 3-1.79-3.36-3-7 1.3-2.55 4-3.5 3.4-0.35 6.5-1.5 3.51-5.8-3-3-1.04-1.4 0.5-2 8.13-2.35 14.5-8 4.07-6.78-3.5-8 0.5-1 1-2 2.46-0.99 5-2 1 2.5 2 5 1.02-0.54 2-1z"/>
	</g>
	<g>
		<path fill-rule="evenodd" class="s268" d="m784.5 569.5q7.57 1.22 3.5 8-6.37 5.65-14.5 8 2.95-5.56 6-11.5-0.99-5.25 5-4.5z"/>
	</g>
	<g>
		<path fill-rule="evenodd" class="s269" d="m188.5 596.5q1.44 0.68 2.5 2 1.08 6.33 5.5 11 0.19 2.57 1 5-3.55-0.87-5.5-4-2.23-6.88-3.5-14z"/>
	</g>
	<g>
		<path fill-rule="evenodd" class="s270" d="m204.5 604.5q3.23 4.1 4 9.5-0.1 1.15-1 1.5-2.06-2.64-3-6-1.29-1.39-3-2-2.76-3.38-6.5-6-1-2 0-4 5.25 2.98 9.5 7z"/>
	</g>
	<g>
		<path fill-rule="evenodd" class="s271" d="m122.5 610.5q5.02-0.25 10 0.5 1.71 1.11 0 2.5 10.66 1.88 21 3-13.18 0.69-26-2-1.33-1.24-1-3-2.4 0.4-4-1z"/>
	</g>
	<g>
		<path fill-rule="evenodd" class="s272" d="m201.5 607.5q1.71 0.61 3 2 0.94 3.36 3 6 1.06 1.36 3 1 0.26 3.54 1 7-1.5 0-3 0-0.79-1.83-2-3.5-4.3-3.4-9-5.5-0.81-2.43-1-5 1.08 0.63 1.5 2 2.44-1.55 3.5-4z"/>
	</g>
	<g>
		<path fill-rule="evenodd" class="s273" d="m253.5 536.5q2.97 19.31-2.5 38-2.24-1.87-4.5 0-3.42 5.93 0 12-0.5 5.01-1 10 0.31 4.53 1 9 0 0.5 0 1-2.2 3.07 1 5.5-0.72 4.35-3 8 1.61 1.11 2 3-2.63 4.37-3.5 9.5-1.79 1.4-4 2-4.34-1.8-8.5-4-0.75-21.99 1-44 0.44-2.85 2-5-1.37 12.48 0.5 25 1.97 2.21 3 5 10.93-2.87 5.5-13 3.12-9.63 0-19.5 2.96-7.19 8.5-12.5 1.21-9.87-0.5-19.5-2.06-0.6-4-1.5-1.24 2.79-3 5 1.14-9.46 1-19 9.62-5.92 9 5z"/>
	</g>
	<g>
		<path fill-rule="evenodd" class="s274" d="m231.5 586.5q-1.75 22.01-1 44 4.16 2.2 8.5 4 2.21-0.6 4-2 0.87-5.13 3.5-9.5-0.39-1.89-2-3 2.28-3.65 3-8-3.2-2.43-1-5.5 1.77 2.25 5 3 2.18 2.02 2 5 2 0 4 0 0.38-3.44-1-6.5 3.31-3.84 5.5-8.5 1.42 1.14 1.5 3-2.47 5.73-2 12-2.61 3.71-4.5 8-8.2 6.33-15 14-4.41 7.35-3.5 16-1.23-5.22-1.5-11-2.79 2.29-4.5 5.5 1.18 3.15 1 6.5-7.5-17.03-6-36 1-12.5 2-25 1-3 2-6z"/>
	</g>
	<g>
		<path fill-rule="evenodd" class="s275" d="m797.5 600.5q-4.47 6.98-9 14-4.39 4.74-11 5.5-10.28 10.35-25 10.5 3.87-1.09 8-2.5-2.3-1.66-2-4.5 2.06 0.24 4-0.5 1.86-3.68 6-3.5 0.33-1.76-1-3-1.85 1.12-4 1 0.21-2.64-1-5-3.23-1.37-6-3.5 1.85-3.11 5-4.5-0.46 0.98-1 2 5.41 2.72 11 5 2.5-1.25 5-2.5 6-6 12-12 4.28-0.4 8-2.5 1.45 2.84 1 6z"/>
	</g>
	<g>
		<path fill-rule="evenodd" class="s276" d="m95.5 608.5q1.55 1.78 4 2.5 1.62 4.86 6 7.5 0 0.5 0 1-9.41-1.66-10-11z"/>
	</g>
	<g>
		<path fill-rule="evenodd" class="s277" d="m204.5 599.5q3.58 3.62 6.5 8 1.12 8.98 4.5 17 2.7 8.87 4.5 18 7.55 6.31 9.5 16-3.95-4.86-6.5-11-1.56-2.72-3.5-1-1.27-3.58-3-7-1.09-5.01-2.5-10-1.53-4.28-5.5-6 1.5 0 3 0-0.74-3.46-1-7-1.94 0.36-3-1 0.9-0.35 1-1.5-0.77-5.4-4-9.5 1.31 0.2 2-1-1.7-1.68-2-4z"/>
	</g>
	<g>
		<path fill-rule="evenodd" class="s278" d="m721.5 616.5q-2.87 0.11-3.5 3-0.69 6.39-3.5 12-1.5 2.5-4 4-1.11 0.2-2-0.5 1.32-2.03 1-4.5 3.66-3.63 4-9 3.6-4.68 3.5-11 3.46-2.46 4.5-6.5 1.65-0.65 2 1.5-1.16 5.49-2 11z"/>
	</g>
	<g>
		<path fill-rule="evenodd" class="s279" d="m112.5 608.5q4.93 1.31 10 2 1.6 1.4 4 1-0.33 1.76 1 3 12.82 2.69 26 2 4.94 1.8 9 5-10.83-3.2-22-1-4.06-1.96-8.5-3-0.84 0.78-2 1-7.98-6.62-17.5-10z"/>
	</g>
	<g>
		<path fill-rule="evenodd" class="s280" d="m616.5 600.5q2.38 2.37 3 6 1.24 1.33 3 1-0.36 5.87 2.5 11 6.12 8.33 10 18 1.62 9.78 4.5 19-1.29-3.39-5-4.5 0.93-2.35 1-5-0.79-5.31-2-10.5-7.82 2.03-8 9.5-1.19 5.12-1.5 10.5-0.57-2.16-2.5-3-0.09-8.65 2-17 0.25-5.52-0.5-11-3.95-3.59-7.5-7.5 2.64-5.36-3-6.5 0.32-2.52-2-3-0.24-3.04 0.5-6 8.03 8.94 5.5-1z"/>
	</g>
	<g>
		<path fill-rule="evenodd" class="s281" d="m105.5 607.5q3.6-0.08 7 1 9.52 3.38 17.5 10 1.16-0.22 2-1 4.44 1.04 8.5 3 11.17-2.2 22 1 4.06 1.51 8 3-9.01-0.25-18 0.5-6.02 7.25-14 2.5-1.8-2.84-4-5.5-9.74-0.25-19-3-2.77-3.03-6-5.5-1.87-2.26 0-4.5-2.34-0.32-4-1.5z"/>
	</g>
	<g>
		<path fill-rule="evenodd" class="s282" d="m718.5 631.5q2.18-1.2 5-1.5-1.43-1.08-0.5-2.5 9.7-3.37 8.5-13-1.5 0-3 0 2.2-1.92 2-5 1.76 0.33 3-1 2.3-5.66 7-9.5 1.94-0.74 4-0.5 0.27 3.68-2 6.5 1.49 3.68 0.5 7.5-3.97 5.44-6.5 11.5 1.24 1.37 3 2-0.96 2.56 0 5.5-10.5 0-21 0z"/>
	</g>
	<g>
		<path fill-rule="evenodd" class="s283" d="m610.5 607.5q2.32 0.48 2 3 5.64 1.14 3 6.5 3.55 3.91 7.5 7.5 0.75 5.48 0.5 11-1.44 0.68-2.5 2-0.12 5.79-2 11-1.58-3.47-5.5-4-0.5 0.75-1 1.5 0.93 4.78 2 9.5-0.5 0.5-1 1-3.82-9.35-6-18.5 2.11-5.06 1.5-10.5-4.43 1.1-4.5-4 2.47 0.32 4.5-1 1.73-5.88 1.5-12 0-1.5 0-3z"/>
	</g>
	<g>
		<path fill-rule="evenodd" class="s284" d="m713.5 621.5q-0.34 5.37-4 9 0-1.5 0-3 1.26-3.53 4-6z"/>
	</g>
	<g>
		<path fill-rule="evenodd" class="s285" d="m728.5 614.5q1.5 0 3 0 1.2 9.63-8.5 13-0.93 1.42 0.5 2.5-2.82 0.3-5 1.5-2 0-4 0 2.81-5.61 3.5-12 0.63-2.89 3.5-3 4.07 0.47 7-2z"/>
	</g>
	<g>
		<path fill-rule="evenodd" class="s286" d="m105.5 619.5q0-0.5 0-1 2.28 0.02 3.5 2 1.08-1.43 2.5-0.5 6.28 5.35 10 12.5 2.27 2.5 5 4-2.06 0.24-4-0.5-2.88-3.64-7-5.5-3.94-6.44-10-11z"/>
	</g>
	<g>
		<path fill-rule="evenodd" class="s287" d="m138.5 627.5q7.98 4.75 14-2.5 8.99-0.75 18-0.5 3.78 1.33 8 2.5 1.81 1.56 3 3.5-3.73-0.94-7-3-1.5 0.5-3 1 1.87 2.73 2 6 2.4-0.4 4 1-0.98 0.89-2 2-5.98-0.91-12-2 2.07-2.04-0.5-3-2.44 1.18-4.5 3-1.21-0.46-2-1.5 1.62-1.43 3.5-2.5 1-1 0-2-4.36 2.59-9.5 2 0.24-2.06-0.5-4-1.26 3.96 1.5 7-1 0.5-2 1-2.03-1.3-2.5-3-4.01 5.99-8 0-0.5 1-1 2-2.96-0.22-6-1-4.18 4.18-5-2-2.38 1.84-4-1-0.27-2.98 0.5-6-4.97 0.35-2.5-3 5.69 1.1 11.5 1.5 2.16 1.49 3 4 1.42 0.72 3 0.5z"/>
	</g>
	<g>
		<path fill-rule="evenodd" class="s288" d="m181.5 630.5q4.76 2.94 10 5 0.05 1.5-1.5 2-6.23-1.18-12.5-2-1.6-1.4-4-1-0.13-3.27-2-6 1.5-0.5 3-1 3.27 2.06 7 3z"/>
	</g>
	<g>
		<path fill-rule="evenodd" class="s289" d="m610.5 610.5q0.23 6.12-1.5 12-2.03 1.32-4.5 1 0.07 5.1 4.5 4 0.61 5.44-1.5 10.5 2.18 9.15 6 18.5 0.5-0.5 1-1-1.07-4.72-2-9.5 0.5-0.75 1-1.5 3.92 0.53 5.5 4 1.88-5.21 2-11 1.06-1.32 2.5-2-2.09 8.35-2 17 0 2 0 4-2 0-4 0-0.43 4.13-2 8-1.45-2.84-1-6-1.76 0.33-3-1-0.83-3.24-2-6-2.45-6-2.5-12-5.96-2.83-6.5 4-3.46 1.1-5.5 4 0.24 5.94 0.5 12-1.68-3.68-2.5-8-1.24-12.77 0.5-25-0.24 2.06 0.5 4 2.5-2.5 5-5 1.9-6.69 5-13 3.13-1.35 6.5-2z"/>
	</g>
	<g>
		<path fill-rule="evenodd" class="s290" d="m709.5 627.5q0 1.5 0 3-3.37 4.39-7 9-0.5 0-1 0 3.25-4.5 5-10 1.29-1.39 3-2z"/>
	</g>
	<g>
		<path fill-rule="evenodd" class="s291" d="m740.5 632.5q3.5 0 7 0-3.41 11.81-8.5 23-2.61 1.82-3 5-2.33 2.2-5.5 3-1.44 3.43-4 6-4.8 3.55-10 6.5-9.38 1.21-18.5 3.5-3.5 2.35-6.5 5-1.62 0.06-3 1-1.73 6.33-5 12-1.78 1.39-4 1-0.19 2.57-1 5 0.44 4.88-2 9-3.39 1.27-3 5-1.5 0-3 0 0-3.5 0-7 0-1.5 0-3 4.16-13.64 6.5-28 1.7-2.76 2.5-6 1.78-1.39 4-1 3.71-14.24 15-24 4.65-2.88 9-6.5 1.98-1.22 2-3.5-0.26-1.49 1-2 2.54-0.28 4-2.5 13.07-0.34 26-1.5z"/>
	</g>
	<g>
		<path fill-rule="evenodd" class="s292" d="m227.5 617.5q-1.5 18.97 6 36 1.84 4.87 5 9 0.81 2.43 1 5 1.4 2.61 0 5-1.46-3.96-5-6-1.78-3.67-4-7 0-1-1-1-1.95-9.69-9.5-16-1.8-9.13-4.5-18 1.71 0.61 3 2 0.85 4.43 3.5 8 2-4 4 0 0.26-8.77 1.5-17z"/>
	</g>
	<g>
		<path fill-rule="evenodd" class="s293" d="m709.5 630.5q0.32 2.47-1 4.5 0.89 0.7 2 0.5 0 0.5 0 1-1.26 0.51-1 2-1.66 1.65-4 2-1.94 0.36-3-1 3.63-4.61 7-9z"/>
	</g>
	<g>
		<path fill-rule="evenodd" class="s294" d="m115.5 630.5q4.12 1.86 7 5.5 1.94 0.74 4 0.5 1.1 1.81 1 4-5.41-2.21-10-6-1.81-1.62-2-4z"/>
	</g>
	<g>
		<path fill-rule="evenodd" class="s295" d="m209.5 642.5q2.06 1.52 4 3 2.43 1.92 5 4 1.33-1.24 1-3 1.75 1.49 2 4-0.82 2.45-1 5-5.92-5.47-13-9.5-5.34-1.86-11-1.5-4-1-8-2-0.16-2.82 1.5-1 3.81-1.86 7.5-4 2.93 1.06 5 3.5 3.55 0.66 7 1.5z"/>
	</g>
	<g>
		<path fill-rule="evenodd" class="s296" d="m94.5 604.5q6.37-0.83 11 3 1.66 1.18 4 1.5-1.87 2.24 0 4.5 3.23 2.47 6 5.5 9.26 2.75 19 3 2.2 2.66 4 5.5-1.58 0.22-3-0.5-0.84-2.51-3-4-5.81-0.4-11.5-1.5-2.47 3.35 2.5 3-0.77 3.02-0.5 6 1.62 2.84 4 1 0.82 6.18 5 2 3.04 0.78 6 1 0.5-1 1-2 3.99 5.99 8 0 0.47 1.7 2.5 3 1-0.5 2-1-2.76-3.04-1.5-7 0.74 1.94 0.5 4 5.14 0.59 9.5-2 1 1 0 2-1.88 1.07-3.5 2.5 0.79 1.04 2 1.5 2.06-1.82 4.5-3 2.57 0.96 0.5 3 6.02 1.09 12 2 1.02-1.11 2-2 6.27 0.82 12.5 2 1.55-0.5 1.5-2 4.43 0.96 9 1.5 4.02 3.72 9 5.5-3.45-0.84-7-1.5-2.07-2.44-5-3.5-3.69 2.14-7.5 4-1.66-1.82-1.5 1-4.82-0.47-9 1-1 0-2 0-23.53 0.88-47-2-1.66-0.09-3-1 0.1-2.19-1-4-2.73-1.5-5-4-3.72-7.15-10-12.5-1.42-0.93-2.5 0.5-1.22-1.98-3.5-2-4.38-2.64-6-7.5-2.45-0.72-4-2.5-1.4-1.6-1-4z"/>
	</g>
	<g>
		<path fill-rule="evenodd" class="s297" d="m179.5 643.5q4.18-1.47 9-1 4 1 8 2-8.52-0.2-17-1z"/>
	</g>
	<g>
		<path fill-rule="evenodd" class="s298" d="m130.5 641.5q23.47 2.88 47 2 0 1-1 1-7.43-0.57-14 2-15.13-0.47-30-3.5-1.37-0.42-2-1.5z"/>
	</g>
	<g>
		<path fill-rule="evenodd" class="s299" d="m176.5 644.5q-6.6 2.41-14 2 6.57-2.57 14-2z"/>
	</g>
	<g>
		<path fill-rule="evenodd" class="s300" d="m216.5 639.5q1.73 3.42 3 7 0.33 1.76-1 3-2.57-2.08-5-4 1.5 0 3 0 0-3 0-6z"/>
	</g>
	<g>
		<path fill-rule="evenodd" class="s301" d="m709.5 638.5q-0.02 2.28-2 3.5-4.35 3.62-9 6.5 3.5-4 7-8 2.34-0.35 4-2z"/>
	</g>
	<g>
		<path fill-rule="evenodd" class="s302" d="m609.5 651.5q0.24 2.06-0.5 4-1.5-2.5-3-5-1.57 1.68-2 4-1.96-3.59-3 0-0.5-1.5-1-3 0.83 5.44-0.5 11-2.29-1.07-4-3-0.26-6.06-0.5-12 2.04-2.9 5.5-4 0.54-6.83 6.5-4 0.05 6 2.5 12z"/>
	</g>
	<g>
		<path fill-rule="evenodd" class="s303" d="m238.5 652.5q1.38 3.4 2.5 7 3.19 2.42 4.5 6-3.45-2.69-6.5-6-0.72 1.42-0.5 3-3.16-4.13-5-9 0.18-3.35-1-6.5 1.71-3.21 4.5-5.5 0.27 5.78 1.5 11z"/>
	</g>
	<g>
		<path fill-rule="evenodd" class="s304" d="m219.5 646.5q1.94-1.72 3.5 1 2.55 6.14 6.5 11 1 0 1 1 1.9 4.59-3 2-2.67-4.04-7-6 0.18-2.55 1-5-0.25-2.51-2-4z"/>
	</g>
	<g>
		<path fill-rule="evenodd" class="s305" d="m639.5 655.5q1.73 10.23 0.5 21-0.35 1.86-1.5 3 1.5-9.96 0.5-20-1-2-2 0-0.93-1.42 0.5-2.5-3.65-3.29-5-8 1.44-1.72-1-3 4.45-3.27-1-3.5 0.24 3.04-0.5 6-2.26 2.28-2.5 5.5 1.88 6.02 0 12 0.39 1.89 2 3-2.58 1.11-5 2.5 5.13 5.7 11 10.5-1.37 2.44 2 2.5-0.91 11.9-12 16 1.2-7 5-13-0.75-1.53-2-0.5-4.73 4.48-9 9.5-1.21-2.88-1.5-6-1.46 3.57-2-1-0.26-6.06-1.5-12-1.47-0.72-2.5-2-0.5-4-1-8-3.03-2.78-5.5-6-1.67 7.98 2.5 15 0.75 3.97 0.5 8-2.54-6.54-7.5-12-0.68-5.03-1.5-10 1.33-5.56 0.5-11 0.5 1.5 1 3 1.04-3.59 3 0 0.43-2.32 2-4 1.5 2.5 3 5 0.74-1.94 0.5-4 1.17 2.76 2 6 1.24 1.33 3 1-0.45 3.16 1 6 1.57-3.87 2-8 2 0 4 0 0-2 0-4 1.93 0.84 2.5 3 0.31-5.38 1.5-10.5 0.18-7.47 8-9.5 1.21 5.19 2 10.5-0.07 2.65-1 5 3.71 1.11 5 4.5z"/>
	</g>
	<g>
		<path fill-rule="evenodd" class="s306" d="m638.5 679.5q-0.19 2.57-1 5-3.37-0.06-2-2.5-5.87-4.8-11-10.5 2.42-1.39 5-2.5-1.61-1.11-2-3 1.88-5.98 0-12 0.24-3.22 2.5-5.5 0.74-2.96 0.5-6 5.45 0.23 1 3.5 2.44 1.28 1 3 1.35 4.71 5 8-1.43 1.08-0.5 2.5 1-2 2 0 1 10.04-0.5 20z"/>
	</g>
	<g>
		<path fill-rule="evenodd" class="s307" d="m740.5 632.5q4.8-1.8 10 0-0.6 16.32-11.5 28-1.46 2.84-2 6-2.75 4-7.5 5-0.48-2.32-3-2 2.56-2.57 4-6 3.17-0.8 5.5-3 0.39-3.18 3-5 5.09-11.19 8.5-23-3.5 0-7 0z"/>
	</g>
	<g>
		<path fill-rule="evenodd" class="s308" d="m230.5 659.5q2.22 3.33 4 7 4.38 9.77 13 16-1.11-0.2-2 0.5 1.13 1.01 1 2.5-7.99-8.74-16.5-17-0.58-3.84-2.5-7 4.9 2.59 3-2z"/>
	</g>
	<g>
		<path fill-rule="evenodd" class="s309" d="m245.5 665.5q1.73 4.6 6 7 0 1.5 0 3-2.06 0.24-4-0.5-1.73-3.3-5-4.5-1-2-3-3-0.19-2.57-1-5-0.22-1.58 0.5-3 3.05 3.31 6.5 6z"/>
	</g>
	<g>
		<path fill-rule="evenodd" class="s310" d="m801.5 678.5q-3-1.5-6-3-7.8-2.41-16-3.5-3-1.5-6-3-9.03-0.86-18 0.5 1.66-1.18 4-1.5 13.53-1.25 27 0.5 6.14 3.13 12 6.5 1.82 1.56 3 3.5z"/>
	</g>
	<g>
		<path fill-rule="evenodd" class="s311" d="m234.5 666.5q3.54 2.04 5 6 1.4-2.39 0-5 2 1 3 3 3.05 6.3 9.5 9 0.39 3.18 3 5 1 2 0 4-3.2-3.98-7.5-6-8.62-6.23-13-16z"/>
	</g>
	<g>
		<path fill-rule="evenodd" class="s312" d="m729.5 672.5q-1.69 2.44-4 4.5 4.98 0.75 10 0.5-5.19 1.47-11 1 0.32-4.82 5-6z"/>
	</g>
	<g>
		<path fill-rule="evenodd" class="s313" d="m726.5 669.5q0.13 1.49-1 2.5-3.39 2.68-7 4.5-6.71 2.54-14 3.5 5.13-0.22 6 4.5 1.5 0 3 0 0 0.5 0 1-2.77 0.99-5 3-5.39-0.87-1-4-11.99-4.77-17 8-1.79-0.7-2-3 0.41-3.29 3-5 3-2.65 6.5-5 9.12-2.29 18.5-3.5 5.2-2.95 10-6.5z"/>
	</g>
	<g>
		<path fill-rule="evenodd" class="s314" d="m718.5 676.5q1.5 0 3 0 0 1.5 0 3-2.82-0.41-4 2-2.86 0.36-4 3-1.5 0-3 0-0.87-4.72-6-4.5 7.29-0.96 14-3.5z"/>
	</g>
	<g>
		<path fill-rule="evenodd" class="s315" d="m726.5 669.5q2.52-0.32 3 2 0 0.5 0 1-4.68 1.18-5 6 5.81 0.47 11-1 2 0 4 0-4.69 2.13-10 3-1.11-0.2-2 0.5 1.61 1.28 3 2.5-2 0-4 0 0-0.5 0-1-4.18-1.47-9-1 1.18-2.41 4-2 0-1.5 0-3-1.5 0-3 0 3.61-1.82 7-4.5 1.13-1.01 1-2.5z"/>
	</g>
	<g>
		<path fill-rule="evenodd" class="s316" d="m595.5 659.5q1.71 1.93 4 3 0.82 4.97 1.5 10 4.96 5.46 7.5 12 1.47 5.7 1 12-4.68-7.18-8-15.5-4.06-10.39-6-21.5z"/>
	</g>
	<g>
		<path fill-rule="evenodd" class="s317" d="m717.5 681.5q4.82-0.47 9 1-6.77-0.34-13 2 1.14-2.64 4-3z"/>
	</g>
	<g>
		<path fill-rule="evenodd" class="s318" d="m729.5 680.5q5.31-0.87 10-3 0.51-1.26 2-1 1.5 0 3 0 1.9-0.88 3 0-1.4 2.21-4 3-1 2.5-2 5-6.32-1.57-12-4z"/>
	</g>
	<g>
		<path fill-rule="evenodd" class="s319" d="m795.5 675.5q3 1.5 6 3 2.64 1.14 3 4-3.62-2.24-8-3-4.14 10.8-14.5 5-2.4 2.3-5.5 1.5 4.17-3.26-0.5-1.5-0.96-3.91-3.5-7 2.75-0.5 5.5-1 8.68 1.61 17.5 2 0-1.5 0-3z"/>
	</g>
	<g>
		<path fill-rule="evenodd" class="s320" d="m707.5 684.5q-11.3 8.79-21 20-2.29-7.43 4-12 5.01-12.77 17-8z"/>
	</g>
	<g>
		<path fill-rule="evenodd" class="s321" d="m726.5 683.5q2 0 4 0 3.3 0.56 6 2-5.37-0.07-10-2z"/>
	</g>
	<g>
		<path fill-rule="evenodd" class="s322" d="m756.5 672.5q2.31 0.99 5 2 2.38 2.92-1 4.5-7.1 0.76-14 2.5-0.31 0.88-1 1.5 3.56 5.16 9 8-1.93 1.03-3.5-0.5-1.03 1.93 0.5 3.5-2.54 0.58-5-0.5-1.34-0.91-3-1-1.26-2.82-1-6-3-0.5-6-1-2.7-1.44-6-2-1.39-1.22-3-2.5 0.89-0.7 2-0.5 5.68 2.43 12 4 1-2.5 2-5 2.6-0.79 4-3-1.1-0.88-3 0 4.12-2.82 9-5 1.38 0.94 3 1z"/>
	</g>
	<g>
		<path fill-rule="evenodd" class="s323" d="m756.5 672.5q6.98 0.75 14 1 0.21 2.44-2 3.5 1.13 1.01 1 2.5-5.87 1.72-12 2.5-2.41 1.57-2 4.5 4.33-0.46 8 1-7.58 1.1-7 9 4.36-0.36 7 3 0-3.5 0-7 3.44 1.73 6 4-1.5 0-3 0 0.45 3.16-1 6-1.54-2.03-4-2-9.08-0.07-15-7 2.46 1.08 5 0.5-1.53-1.57-0.5-3.5 1.57 1.53 3.5 0.5-5.44-2.84-9-8 0.69-0.62 1-1.5 6.9-1.74 14-2.5 3.38-1.58 1-4.5-2.69-1.01-5-2z"/>
	</g>
	<g>
		<path fill-rule="evenodd" class="s324" d="m736.5 685.5q3 0.5 6 1-0.26 3.18 1 6-1.11 0.2-2-0.5-0.92-4.63-5-6.5z"/>
	</g>
	<g>
		<path fill-rule="evenodd" class="s325" d="m795.5 675.5q0 1.5 0 3-8.82-0.39-17.5-2-2.75 0.5-5.5 1 2.54 3.09 3.5 7 4.67-1.76 0.5 1.5 3.1 0.8 5.5-1.5 10.36 5.8 14.5-5 4.38 0.76 8 3 7.65 8 15 16.5 5.77 3.54 11 7.5-2.52-0.59-5-1.5-5.35-4.27-11-8-9.12-0.54-10-9.5-6.85-0.67-9 6-1.78 1.39-4 1 0 1.5 0 3-3.18 0.26-6-1-3.86-1.45-7-4.5-4-0.5-8-1-0.74-6.13-7-6 5.23-0.49 6-5.5 0.13-1.49-1-2.5 2.21-1.06 2-3.5-7.02-0.25-14-1-1.62-0.06-3-1-4.88 2.18-9 5-1.5 0-3 0 6.19-5.1 14-7 8.97-1.36 18-0.5 3 1.5 6 3 8.2 1.09 16 3.5z"/>
	</g>
	<g>
		<path fill-rule="evenodd" class="s326" d="m701.5 639.5q0.5 0 1 0 1.06 1.36 3 1-3.5 4-7 8-11.29 9.76-15 24-2.22-0.39-4 1-0.8 3.24-2.5 6-2.34 14.36-6.5 28-0.09-0.81-1-1-1.67 5.64-3 11-0.57-7.43 2-14 3.1-11.2 5-23 4.27-8.17 7-17 4.58-1.23 5-6 7.48-9.48 16-18z"/>
	</g>
	<g>
		<path fill-rule="evenodd" class="s327" d="m673.5 680.5q-1.9 11.8-5 23 0.38-7.53 1.5-15 1.06-4.46 3.5-8z"/>
	</g>
	<g>
		<path fill-rule="evenodd" class="s328" d="m763.5 687.5q3.62 0.29 3 4 6.07 0.46 11.5 3 0.72 1.42 0.5 3-2.99-0.26-5 2-0.89-1.82-0.5-4-1.52 1.26-3.5 1-2.56-2.27-6-4 0 3.5 0 7-2.64-3.36-7-3-0.58-7.9 7-9z"/>
	</g>
	<g>
		<path fill-rule="evenodd" class="s329" d="m242.5 670.5q3.27 1.2 5 4.5 1.94 0.74 4 0.5 0-1.5 0-3 3.07 2.61 5.5 6 1.89 10.58 6.5 20 2.3 2.14-1 2-8.98-6.48-16-15 0.13-1.49-1-2.5 0.89-0.7 2-0.5 4.3 2.02 7.5 6 1-2 0-4-2.61-1.82-3-5-6.45-2.7-9.5-9z"/>
	</g>
	<g>
		<path fill-rule="evenodd" class="s330" d="m691.5 684.5q-2.59 1.71-3 5 0.21 2.3 2 3-6.29 4.57-4 12 9.7-11.21 21-20-4.39 3.13 1 4 2.23-2.01 5-3-3.22 5.13-9 7.5-8.35 8.09-16 16.5 0-1.5 0-3-4 0-8 0 0.36-1.94-1-3-0.5 0-1 0 0.81-2.43 1-5 2.22 0.39 4-1 3.27-5.67 5-12 1.38-0.94 3-1z"/>
	</g>
	<g>
		<path fill-rule="evenodd" class="s245" d="m625.5 700.5q-1.5 2-3 4-0.5 0-1 0 0-1.5 0-3-3.5 0-7 0 0 1.5 0 3-0.5 0-1 0-2.31-3.64-3-8-0.5 0-1 0 0.47-6.3-1-12 0.25-4.03-0.5-8-4.17-7.02-2.5-15 2.47 3.22 5.5 6 0.5 4 1 8 1.03 1.28 2.5 2 1.24 5.94 1.5 12 0.54 4.57 2 1 0.29 3.12 1.5 6 4.27-5.02 9-9.5 1.25-1.03 2 0.5-3.8 6-5 13z"/>
	</g>
	<g>
		<path fill-rule="evenodd" class="s331" d="m610.5 696.5q-0.37-10.53-0.5-21 5.41 10.26 4 22-1.72-0.18-3.5-1z"/>
	</g>
	<g>
		<path fill-rule="evenodd" class="s332" d="m830.5 706.5q3.65-0.34 5 3 1.15 3.89 1 8-4.43 0.99-9 1-0.5 0-1 0 0-0.5 0-1 9.93 1.84 5.5-7-3.71-2.23-7.5-4-9.17-5.81-20-8-0.46 5.26-6 5-2.79 3.37-3 8 12.78-0.49 25 1-7 0-14 0-7.57 0.49-15-1 1.39-1.9 0.5-4-1.15-1.65-2.5 0-1.1-2.07-2-4.5-4.24-1.87-8-4.5 2.28-2.67 6-2 2.82 1.26 6 1 0-1.5 0-3 2.22 0.39 4-1 2.15-6.67 9-6 0.88 8.96 10 9.5 5.65 3.73 11 8 2.48 0.91 5 1.5z"/>
	</g>
	<g>
		<path fill-rule="evenodd" class="s333" d="m769.5 679.5q-0.77 5.01-6 5.5 6.26-0.13 7 6 4 0.5 8 1 3.14 3.05 7 4.5-3.72-0.67-6 2 3.76 2.63 8 4.5 0.9 2.43 2 4.5-4.21 1.71-9 0.5-2.7-1.89-4-5-4.82-1.2-9 1.5-1.38-0.94-3-1-3 0-3-3 2.46-0.03 4 2 1.45-2.84 1-6 1.5 0 3 0 1.98 0.26 3.5-1-0.39 2.18 0.5 4 2.01-2.26 5-2 0.22-1.58-0.5-3-5.43-2.54-11.5-3 0.62-3.71-3-4-3.67-1.46-8-1-0.41-2.93 2-4.5 6.13-0.78 12-2.5z"/>
	</g>
	<g>
		<path fill-rule="evenodd" class="s334" d="m824.5 706.5q3.79 1.77 7.5 4 4.43 8.84-5.5 7-2.41-1.18-2-4-2.4 0.4-4-1-12.22-1.49-25-1 0.21-4.63 3-8 5.54 0.26 6-5 10.83 2.19 20 8z"/>
	</g>
	<g>
		<path fill-rule="evenodd" class="s335" d="m273.5 705.5q7.87 0.43 12 7-5.63-4.31-12-7z"/>
	</g>
	<g>
		<path fill-rule="evenodd" class="s336" d="m263.5 698.5q5.01 3.51 10 7 6.37 2.69 12 7 2.25 6.24 9 7-0.48 2.32-3 2-1.34-0.91-3-1-3.02-2.54-7-4 1.34-2.77-2-4-2.72-0.41-5-2-6.5-4.51-12-10 3.3 0.14 1-2z"/>
	</g>
	<g>
		<path fill-rule="evenodd" class="s337" d="m621.5 704.5q-4.33 2.67-4 8-1.15 1.14-1.5 3-0.27-5.78-1.5-11 0-1.5 0-3 3.5 0 7 0 0 1.5 0 3z"/>
	</g>
	<g>
		<path fill-rule="evenodd" class="s338" d="m621.5 704.5q0.5 0 1 0-4.2 5.39-5 12 0-2 0-4-0.33-5.33 4-8z"/>
	</g>
	<g>
		<path fill-rule="evenodd" class="s339" d="m679.5 703.5q1.36 1.06 1 3 4 0 8 0 0 1.5 0 3-2 1.5-4 3-3.15 1.1-6 0 1.36-4.38 1-9z"/>
	</g>
	<g>
		<path fill-rule="evenodd" class="s340" d="m824.5 706.5q1.47 2.47 4 4 1.45 2.84 1 6-1.5 0-3 0 0.96-2.94 0-5.5-11-0.5-22-1-0.96-2.56 0-5.5 10.18-0.45 20 2z"/>
	</g>
	<g>
		<path fill-rule="evenodd" class="s341" d="m789.5 707.5q1.35-1.65 2.5 0 0.89 2.1-0.5 4 7.43 1.49 15 1 0 0.5 0 1-12.01 0.25-24-0.5-6.67-3.78-14-6-2.39-1.42-4-3.5 1.62 0.06 3 1 4.18-2.7 9-1.5 1.3 3.11 4 5 4.79 1.21 9-0.5z"/>
	</g>
	<g>
		<path fill-rule="evenodd" class="s125" d="m806.5 713.5q0-0.5 0-1 7 0 14 0 1.6 1.4 4 1-0.41 2.82 2 4 0 0.5 0 1-4.57-1.33-8-4.5-5.98-0.75-12-0.5z"/>
	</g>
	<g>
		<path fill-rule="evenodd" class="s342" d="m279.5 712.5q3.34 1.23 2 4 3.98 1.46 7 4-4-1-8-2-0.5-3-1-6z"/>
	</g>
	<g>
		<path fill-rule="evenodd" class="s343" d="m678.5 703.5q0.5 0 1 0 0.36 4.62-1 9 2.85 1.1 6 0-2.82 2.72-6 5-2.15-0.87-4-2.5 1.88-0.63 2-2.5 2.44-4.12 2-9z"/>
	</g>
	<g>
		<path fill-rule="evenodd" class="s344" d="m670.5 710.5q0 3.5 0 7 1.5 0 3 0-0.39-3.73 3-5-0.12 1.87-2 2.5 1.85 1.63 4 2.5-2.58 4.08-7 6 1.01-2.29 3-4-2.32-1.43-5-1-0.46-4.33 1-8z"/>
	</g>
	<g>
		<path fill-rule="evenodd" class="s335" d="m285.5 712.5q2.71-0.01 5 1.5 1.71 1.11 0 2.5 2.53 0.97 4 3-6.75-0.76-9-7z"/>
	</g>
	<g>
		<path fill-rule="evenodd" class="s345" d="m835.5 709.5q0.93 0.17 1.5 1 2.96 13.1-9.5 8 4.57-0.01 9-1 0.15-4.11-1-8z"/>
	</g>
	<g>
		<path fill-rule="evenodd" class="s346" d="m294.5 719.5q10.87 3.44 20 10-2 0-2 2-10.98-4.34-21-10 2.52 0.32 3-2z"/>
	</g>
	<g>
		<path fill-rule="evenodd" class="s347" d="m670.5 707.5q0 1.5 0 3-1.46 3.67-1 8 2.68-0.43 5 1-1.99 1.71-3 4-3.3-0.57-5 2-3.93 1.93-7 5 0 1-1 1-5.61 0.45-10.5 3-2.06-0.28-2.5-2 5.61-2.85 10-7.5 5.3-1.77 10-5 1.13-1.01 1-2.5 1.33-5.36 3-11 0.91 0.19 1 1z"/>
	</g>
	<g>
		<path fill-rule="evenodd" class="s348" d="m666.5 725.5q-2.28 4.3-7 5 3.07-3.07 7-5z"/>
	</g>
	<g>
		<path fill-rule="evenodd" class="s349" d="m317.5 730.5q6.97 1.65 13 5-5.69-0.34-11-2.5-1.32-1.06-2-2.5z"/>
	</g>
	<g>
		<path fill-rule="evenodd" class="s350" d="m613.5 704.5q0.5 0 1 0 1.23 5.22 1.5 11 0.35-1.86 1.5-3 0 2 0 4-4.99 11.45-10 23-1.5 0-3 0 4.53-3.64 0.5-7-0.57 0.83-1.5 1-0.13-1.49 1-2.5 5.82-1.5 6.5-7.5 3.15-9.23 2.5-19z"/>
	</g>
	<g>
		<path fill-rule="evenodd" class="s351" d="m658.5 731.5q-6.53 3.23-13.5 6 0.27 2.91-3 5-15.66 5.73-30.5 13.5-2.26 4.13-7 3.5-2.52 0.32-3-2 2.12-3.06 6-3 4.05-0.52 6-4 9.39-5.46 20-8-0.43-2.68 1-5 5.76-2.13 11-5 0.44 1.72 2.5 2 4.89-2.55 10.5-3z"/>
	</g>
	<g>
		<path fill-rule="evenodd" class="s352" d="m314.5 729.5q1.34 0.91 3 1 0.68 1.44 2 2.5 5.31 2.16 11 2.5 5.85 2.13 8.5 8 3.23 3.93 7.5 6-6.02-2.53-2 2-7.24-5.37-15-10 0.06-1.62 1-3-7.04-2.01-14-4-2.6-0.79-4-3 0-2 2-2z"/>
	</g>
	<g>
		<path fill-rule="evenodd" class="s353" d="m316.5 734.5q6.96 1.99 14 4-0.94 1.38-1 3-7.96-0.99-13-7z"/>
	</g>
	<g>
		<path fill-rule="evenodd" class="s354" d="m604.5 739.5q-1.36 1.06-1 3-1.47 0.96-3 2-0.5-0.5-1-1 2.17-3.18 2-7 1-1.5 2-3 0.93-0.17 1.5-1 4.03 3.36-0.5 7z"/>
	</g>
	<g>
		<path fill-rule="evenodd" class="s355" d="m601.5 736.5q0.17 3.82-2 7 0.5 0.5 1 1 1.53-1.04 3-2-5.24 8.43-12 16 0.33-1.76-1-3-1.53 1.04-3 2 3.38-5.64 8.5-10 2.55-5.74 5.5-11z"/>
	</g>
	<g>
		<path fill-rule="evenodd" class="s356" d="m613.5 750.5q-1.95 3.48-6 4 2.47-2.74 6-4z"/>
	</g>
	<g>
		<path fill-rule="evenodd" class="s357" d="m353.5 752.5q3.63 2.09 8 2.5 1.32 1.06 2 2.5-2.06 0.24-4-0.5-3.77-1.32-6-4.5z"/>
	</g>
	<g>
		<path fill-rule="evenodd" class="s358" d="m591.5 758.5q-1.35 1.18-2 3-0.81 0.09-1 1 1.25 0.5 2.5 1 2.32-0.68 4.5-0.5-1.13 1.01-1 2.5-3.54-0.26-7-1 0.22-1.58-0.5-3-1.06 1.32-2.5 2 1.51-3.07 3-6 1.47-0.96 3-2 1.33 1.24 1 3z"/>
	</g>
	<g>
		<path fill-rule="evenodd" class="s359" d="m601.5 757.5q0.48 2.32 3 2-2.47 2.14-6 2.5-2.05 2.58-3 5.5 0.26-1.49-1-2-0.13-1.49 1-2.5-2.18-0.18-4.5 0.5-1.25-0.5-2.5-1 0.19-0.91 1-1 2.22 1.51 5 0 2.8-3.15 7-4z"/>
	</g>
	<g>
		<path fill-rule="evenodd" class="s360" d="m346.5 749.5q3.32 1.91 7 3 2.23 3.18 6 4.5 1.94 0.74 4 0.5 2.29-0.11 3 2 3.63 2.65 8 4.5 1.94 0.74 4 0.5 0 2 0 4 2.5 0 5 0 6.63 2.35 14 3.5 7.98 0.75 16 0.5-7.73 1.24-16 1.5 2.51 1.48 5 2.5-5.22-0.29-10-2-12.06-3.51-24-7 0.3-2.84-2-4.5-9.64-5.08-20-7.5 0.41-2.82-2-4-4.02-4.53 2-2z"/>
	</g>
	<g>
		<path fill-rule="evenodd" class="s361" d="m366.5 759.5q6.65 1.37 12 5-2.06 0.24-4-0.5-4.37-1.85-8-4.5z"/>
	</g>
	<g>
		<path fill-rule="evenodd" class="s362" d="m594.5 765.5q1.26 0.51 1 2-5.4 0.29-9 4-4.02 1.67-8 0 2.52-1.92 5.5-3 0.74-2.45 0.5-5 1.44-0.68 2.5-2 0.72 1.42 0.5 3 3.46 0.74 7 1z"/>
	</g>
	<g>
		<path fill-rule="evenodd" class="s363" d="m383.5 768.5q11.78 1.44 23.5 3 7.76-0.41 15.5-1-0.4 4.89-5 6 1.7-1.46 3-3.5-3.46-0.75-7-0.5-8.02 0.25-16-0.5-7.37-1.15-14-3.5z"/>
	</g>
	<g>
		<path fill-rule="evenodd" class="s364" d="m413.5 772.5q3.54-0.25 7 0.5-1.3 2.04-3 3.5-1.5 0-3 0-6 0-12 0-2.49-1.02-5-2.5 8.27-0.26 16-1.5z"/>
	</g>
	<g>
		<path fill-rule="evenodd" class="s365" d="m570.5 773.5q-1.63 3.13-5 4 1.63-3.13 5-4z"/>
	</g>
	<g>
		<path fill-rule="evenodd" class="s366" d="m392.5 774.5q4.78 1.71 10 2 6 0 12 0-0.17 0.93-1 1.5-6 1-12 0-5.26-0.18-9-3.5z"/>
	</g>
	<g>
		<path fill-rule="evenodd" class="s367" d="m584.5 763.5q0.24 2.55-0.5 5-2.98 1.08-5.5 3 3.98 1.67 8 0-0.17 0.93-1 1.5-7.11-0.4-12 4.5-3.93 0.64-7 3-3.44-0.46-1-3 3.37-0.87 5-4 5.94-4.15 13-6-0.4-2.4 1-4z"/>
	</g>
	<g>
		<path fill-rule="evenodd" class="s58" d="m573.5 777.5q-3.93 2.49-8 5 0.5-1 1-2 3.07-2.36 7-3z"/>
	</g>
	<g>
		<path fill-rule="evenodd" class="s368" d="m565.5 777.5q-2.44 2.54 1 3-0.5 1-1 2-6.63 2.86-13 6.5-6.78 9.03-16 15.5-0.5-0.5-1-1 0.98-3.54 4-5 6.03-2.56 7-9 9.5-5.99 19-12z"/>
	</g>
	<g>
		<path fill-rule="evenodd" class="s369" d="m546.5 789.5q-0.97 6.44-7 9 3.85-4.18 7-9z"/>
	</g>
</svg>